<svg xmlns="http://www.w3.org/2000/svg" width="128" height="128" viewBox="0 0 128 128">
  <title>BREEZY</title>
  <g>
    <g>
      <path d="M113.929,46.115c-.138,0-.273.016-.41.02a24.34,24.34,0,0,0-46.957-8.6A18.988,18.988,0,0,0,36.01,46.159c-.292-.02-.583-.044-.88-.044a12.38,12.38,0,0,0,0,24.76h78.8a12.38,12.38,0,0,0,0-24.76Z" fill="#0d91bd"/>
      <path d="M43.938,50.413a1.752,1.752,0,0,1-1.669-2.278,12.38,12.38,0,0,1,11.854-8.681,1.75,1.75,0,0,1,0,3.5,8.891,8.891,0,0,0-8.516,6.235A1.752,1.752,0,0,1,43.938,50.413Z" fill="#09607d"/>
      <path d="M105.206,48.018a1.751,1.751,0,0,1-1.75-1.722A14.337,14.337,0,0,0,89.185,32.25a1.75,1.75,0,0,1,0-3.5,17.853,17.853,0,0,1,17.771,17.49,1.751,1.751,0,0,1-1.722,1.778Z" fill="#09607d"/>
      <path d="M8.312,59.286H1.75v-8H8.312a2.562,2.562,0,0,0,2.563-2.562V46.585a2.557,2.557,0,0,0-1-2.028A3.764,3.764,0,0,1,8.312,41.61v-.516A3.847,3.847,0,0,1,14.319,37.9a10.557,10.557,0,0,1,4.556,8.684v2.139A10.563,10.563,0,0,1,8.312,59.286Z" fill="#beebfa"/>
      <path d="M46.934,105.814H45.339a4,4,0,0,1-4-4h0a4,4,0,0,1,4-4H47.17a3.7,3.7,0,0,0,3.659-2.869,3.638,3.638,0,0,0-3.554-4.395H1.75v-8H47.275A11.649,11.649,0,0,1,58.75,96.119,11.853,11.853,0,0,1,46.934,105.814Z" fill="#beebfa"/>
      <path d="M10.875,74.918H1.75v-8h9.125a4,4,0,0,1,4,4h0A4,4,0,0,1,10.875,74.918Z" fill="#9ee2f8"/>
    </g>
    <g>
      <path d="M126.31,56.745a1.749,1.749,0,0,0-1.75,1.75,10.643,10.643,0,0,1-10.631,10.63H35.13a10.63,10.63,0,0,1,0-21.26c.218,0,.43.016.644.032l.113.008a1.744,1.744,0,0,0,1.792-1.219A17.237,17.237,0,0,1,65.415,38.86a1.751,1.751,0,0,0,2.773-.675,22.59,22.59,0,0,1,43.581,7.978,1.781,1.781,0,0,0,1.778,1.722,1.75,1.75,0,0,0,1.722-1.778A26.091,26.091,0,0,0,65.876,34.8a20.74,20.74,0,0,0-31.092,9.573,14.13,14.13,0,0,0,.346,28.256h78.8A14.147,14.147,0,0,0,128.06,58.5,1.75,1.75,0,0,0,126.31,56.745Z"/>
      <path d="M42.269,48.135a1.75,1.75,0,1,0,3.338,1.054,8.891,8.891,0,0,1,8.516-6.235,1.75,1.75,0,0,0,0-3.5A12.38,12.38,0,0,0,42.269,48.135Z"/>
      <path d="M89.185,28.75a1.75,1.75,0,0,0,0,3.5A14.337,14.337,0,0,1,103.456,46.3a1.751,1.751,0,0,0,1.75,1.722h.028a1.751,1.751,0,0,0,1.722-1.778A17.853,17.853,0,0,0,89.185,28.75Z"/>
      <path d="M1.75,61.036H8.312A12.326,12.326,0,0,0,20.625,48.724v-2.14a12.328,12.328,0,0,0-5.308-10.121,5.53,5.53,0,0,0-5.734-.347,5.6,5.6,0,0,0-3.021,4.978v.516a5.508,5.508,0,0,0,2.245,4.331.809.809,0,0,1,.318.643v2.14a.813.813,0,0,1-.813.812H1.75A1.751,1.751,0,0,0,0,51.286v8A1.751,1.751,0,0,0,1.75,61.036Zm1.75-8H8.312a4.317,4.317,0,0,0,4.313-4.312v-2.14a4.287,4.287,0,0,0-1.677-3.412,2.076,2.076,0,0,1-.886-1.562v-.516a2.088,2.088,0,0,1,1.144-1.877,2,2,0,0,1,2.116.122,8.828,8.828,0,0,1,3.8,7.245v2.14a8.822,8.822,0,0,1-8.813,8.812H3.5Z"/>
      <path d="M28.375,88.8H23.687a1.75,1.75,0,1,0,0,3.5h4.688a1.75,1.75,0,0,0,0-3.5Z"/>
      <path d="M47.275,80.8H1.75A1.75,1.75,0,0,0,0,82.55v8A1.751,1.751,0,0,0,1.75,92.3H14.125a1.75,1.75,0,0,0,0-3.5H3.5V84.3H47.275a9.9,9.9,0,0,1,9.747,11.539,10.136,10.136,0,0,1-10.088,8.226H45.339a2.25,2.25,0,1,1,0-4.5H47.17a5.38,5.38,0,0,0,4.276-8.782A5.367,5.367,0,0,0,47.275,88.8H37.937a1.75,1.75,0,0,0,0,3.5h9.338a1.889,1.889,0,0,1,1.84,2.293,1.965,1.965,0,0,1-1.945,1.472H45.338a5.75,5.75,0,0,0,0,11.5h1.595A13.664,13.664,0,0,0,60.477,96.4a13.4,13.4,0,0,0-13.2-15.6Z"/>
      <path d="M1.75,76.668h9.125a5.75,5.75,0,0,0,0-11.5H1.75A1.751,1.751,0,0,0,0,66.918v8A1.751,1.751,0,0,0,1.75,76.668Zm1.75-8h7.375a2.25,2.25,0,0,1,0,4.5H3.5Z"/>
    </g>
  </g>
</svg>
