<svg xmlns="http://www.w3.org/2000/svg" width="128" height="128" viewBox="0 0 128 128">
  <title>CLOUDY</title>
  <g>
    <g>
      <path d="M47.31,71.057c.12,0,.236.014.355.018a21.073,21.073,0,0,1,40.654-7.444A16.44,16.44,0,0,1,114.77,71.1c.253-.018.505-.038.762-.038a10.719,10.719,0,0,1,0,21.437H47.31a10.719,10.719,0,0,1,0-21.437Z" fill="#beebfa"/>
      <path d="M11.471,54.3c.233,0,.461.019.69.035A14.908,14.908,0,0,1,36.15,47.561a19.107,19.107,0,0,1,36.463,3.15A21.018,21.018,0,0,0,47.665,71.075c-.119,0-.235-.018-.355-.018a10.663,10.663,0,0,0-7.073,2.679H11.471a9.721,9.721,0,1,1,0-19.441Z" fill="#9ee2f8"/>
    </g>
    <g>
      <path d="M115.531,69.307a1.75,1.75,0,0,0,0,3.5,8.968,8.968,0,1,1,0,17.936H47.31a8.966,8.966,0,1,1,.07-17.932h.01l.217.013a1.722,1.722,0,0,0,1.265-.481,1.754,1.754,0,0,0,.543-1.24A19.286,19.286,0,0,1,72.236,52.417l.083.016A19.211,19.211,0,0,1,86.692,64.278a1.75,1.75,0,0,0,2.774.675,14.686,14.686,0,0,1,9.623-3.6,1.75,1.75,0,0,0,0-3.5A18.182,18.182,0,0,0,89,60.914a22.66,22.66,0,0,0-14.965-11.7A20.846,20.846,0,0,0,35.47,44.86a16.663,16.663,0,0,0-24.531,7.7,11.471,11.471,0,0,0,.532,22.929,1.75,1.75,0,1,0,0-3.5,7.971,7.971,0,1,1,0-15.941c.168,0,.333.014.563.03a1.749,1.749,0,0,0,1.8-1.219A13.159,13.159,0,0,1,35,48.882a1.75,1.75,0,0,0,2.773-.674,17.347,17.347,0,0,1,32.414.432c-.482-.03-.968-.05-1.457-.05A22.936,22.936,0,0,0,46,69.375,12.468,12.468,0,0,0,47.31,94.243h68.221a12.468,12.468,0,1,0,0-24.936Z"/>
      <path d="M28.125,71.986H23.582a1.75,1.75,0,0,0,0,3.5h4.543a1.75,1.75,0,0,0,0-3.5Z"/>
    </g>
  </g>
</svg>
