<svg xmlns="http://www.w3.org/2000/svg" width="128" height="128" viewBox="0 0 128 128">
  <title>DRIZZLE</title>
  <g>
    <g>
      <g>
        <path d="M53.227,105.6a1.751,1.751,0,0,1-1.238-2.988l12.4-12.4a1.75,1.75,0,0,1,2.474,2.475l-12.4,12.4A1.743,1.743,0,0,1,53.227,105.6Z" fill="#09607d"/>
        <path d="M69.022,105.6a1.751,1.751,0,0,1-1.237-2.988L78.924,91.471A1.749,1.749,0,0,1,81.4,93.945L70.26,105.084A1.744,1.744,0,0,1,69.022,105.6Z" fill="#09607d"/>
        <path d="M84.819,105.6a1.751,1.751,0,0,1-1.237-2.988L95.471,90.721A1.749,1.749,0,0,1,97.945,93.2L86.057,105.084A1.744,1.744,0,0,1,84.819,105.6Z" fill="#09607d"/>
        <path d="M100.615,105.6a1.751,1.751,0,0,1-1.237-2.988L110.893,91.1a1.749,1.749,0,0,1,2.474,2.474l-11.515,11.514A1.741,1.741,0,0,1,100.615,105.6Z" fill="#09607d"/>
      </g>
      <g>
        <path d="M53.227,118.606a1.75,1.75,0,0,1-1.238-2.987l9-9a1.75,1.75,0,0,1,2.474,2.475l-9,9A1.748,1.748,0,0,1,53.227,118.606Z" fill="#09607d"/>
        <path d="M69.022,118.606a1.75,1.75,0,0,1-1.237-2.987l9-9A1.75,1.75,0,1,1,79.26,109.1l-9,9A1.747,1.747,0,0,1,69.022,118.606Z" fill="#09607d"/>
        <path d="M84.819,118.606a1.75,1.75,0,0,1-1.237-2.987l9-9a1.75,1.75,0,0,1,2.475,2.475l-9,9A1.747,1.747,0,0,1,84.819,118.606Z" fill="#09607d"/>
        <path d="M100.615,118.606a1.75,1.75,0,0,1-1.237-2.987l9-9a1.75,1.75,0,1,1,2.474,2.475l-9,9A1.744,1.744,0,0,1,100.615,118.606Z" fill="#09607d"/>
      </g>
      <path d="M53.913,37.86a19.109,19.109,0,0,1,18.7,15.2h0a21.1,21.1,0,0,1,15.706,12.92,16.411,16.411,0,0,1,15.808-3.23V62.58a8.9,8.9,0,0,1,2.606-6.293l8.211-8.211-8.211-8.211a8.9,8.9,0,0,1-2.606-6.293V21.96H92.515a8.9,8.9,0,0,1-6.293-2.606l-8.211-8.211L69.8,19.354a8.9,8.9,0,0,1-6.293,2.606H51.9V33.572a8.89,8.89,0,0,1-1.283,4.582A19.185,19.185,0,0,1,53.913,37.86Z" fill="#ffb655"/>
      <path d="M47.31,73.41c.12,0,.236.014.355.018a21.073,21.073,0,0,1,40.654-7.443,16.439,16.439,0,0,1,26.451,7.464c.253-.018.505-.039.762-.039a10.719,10.719,0,0,1,0,21.437H47.31a10.719,10.719,0,0,1,0-21.437Z" fill="#beebfa"/>
      <path d="M11.471,56.648c.233,0,.461.019.69.035A14.91,14.91,0,0,1,36.15,49.914a19.108,19.108,0,0,1,36.463,3.151A21.013,21.013,0,0,0,47.665,73.428c-.119,0-.235-.018-.355-.018a10.664,10.664,0,0,0-7.073,2.68H11.471a9.721,9.721,0,0,1,0-19.442Z" fill="#9ee2f8"/>
      <path d="M72.613,53.065h0a21.1,21.1,0,0,1,15.706,12.92A16.476,16.476,0,0,1,92.865,63.2,21.193,21.193,0,1,0,59.076,38.573,19.135,19.135,0,0,1,72.613,53.065Z" fill="#ffe477"/>
      <path d="M91.215,49.826a1.749,1.749,0,0,1-1.75-1.75A11.466,11.466,0,0,0,78.012,36.623a1.75,1.75,0,0,1,0-3.5A14.97,14.97,0,0,1,92.965,48.076,1.749,1.749,0,0,1,91.215,49.826Z" fill="#ffb655"/>
    </g>
    <g>
      <path d="M115.993,71.669a18.114,18.114,0,0,0-16.9-11.458c-.553,0-1.1.034-1.65.084a22.75,22.75,0,0,0,3.526-12.219,22.936,22.936,0,0,0-42.789-11.5,20.618,20.618,0,0,0-4.263-.463c-.2,0-.4.015-.6.021a10.516,10.516,0,0,0,.332-2.559V23.711h9.862a10.583,10.583,0,0,0,7.531-3.12l6.974-6.973,6.972,6.973a10.582,10.582,0,0,0,7.531,3.12h9.862v9.861A10.577,10.577,0,0,0,105.5,41.1l6.974,6.973-3.38,3.38a1.75,1.75,0,0,0,2.474,2.475l4.618-4.617a1.751,1.751,0,0,0,0-2.475l-8.211-8.211a7.1,7.1,0,0,1-2.094-5.056V21.961a1.749,1.749,0,0,0-1.75-1.75H92.515a7.1,7.1,0,0,1-5.056-2.095l-8.21-8.21a1.751,1.751,0,0,0-2.475,0l-8.211,8.209a7.1,7.1,0,0,1-5.056,2.1H51.9a1.75,1.75,0,0,0-1.75,1.75V33.572a7.108,7.108,0,0,1-.69,3.017A20.714,20.714,0,0,0,35.47,47.214a16.662,16.662,0,0,0-24.53,7.7,11.471,11.471,0,0,0,.531,22.93,1.75,1.75,0,1,0,0-3.5,7.971,7.971,0,0,1,0-15.942c.167,0,.332.014.564.031a1.763,1.763,0,0,0,1.8-1.219A13.16,13.16,0,0,1,35,51.235a1.75,1.75,0,0,0,2.773-.674,17.346,17.346,0,0,1,32.414.433c-.482-.031-.968-.051-1.457-.051A22.936,22.936,0,0,0,46,71.728a12.392,12.392,0,0,0-6.4,2.612h-7.48a1.75,1.75,0,0,0,0,3.5h4.434A12.448,12.448,0,0,0,47.31,96.6H58l-6.013,6.012a1.75,1.75,0,1,0,2.475,2.475L62.951,96.6H73.8l-6.013,6.012a1.75,1.75,0,1,0,2.475,2.475L78.747,96.6H89.594l-6.012,6.012a1.75,1.75,0,1,0,2.475,2.475L94.543,96.6h10.848l-6.013,6.012a1.75,1.75,0,1,0,2.474,2.475L110.34,96.6h5.191a12.468,12.468,0,0,0,.462-24.928ZM61.636,37.626a19.433,19.433,0,1,1,30.2,24.109A18.041,18.041,0,0,0,89,63.268a22.662,22.662,0,0,0-14.965-11.7A20.931,20.931,0,0,0,61.636,37.626Zm53.9,55.471H47.31a8.969,8.969,0,0,1,0-17.937l.3.018a1.75,1.75,0,0,0,1.807-1.721A19.281,19.281,0,0,1,72.236,54.771l.086.016a19.21,19.21,0,0,1,14.37,11.844,1.75,1.75,0,0,0,2.773.676A14.69,14.69,0,0,1,113.1,73.976a1.808,1.808,0,0,0,1.863,1.214c.187-.014.375-.03.566-.03a8.969,8.969,0,1,1,0,17.937Z"/>
      <path d="M23.124,74.34H20.47a1.75,1.75,0,0,0,0,3.5h2.654a1.75,1.75,0,0,0,0-3.5Z"/>
      <path d="M89.465,48.076a1.75,1.75,0,0,0,3.5,0A14.97,14.97,0,0,0,78.012,33.123a1.75,1.75,0,0,0,0,3.5A11.466,11.466,0,0,1,89.465,48.076Z"/>
      <path d="M60.989,106.62l-9,9a1.75,1.75,0,0,0,2.475,2.475l9-9a1.75,1.75,0,0,0-2.474-2.475Z"/>
      <path d="M76.785,106.62l-9,9a1.75,1.75,0,0,0,2.475,2.475l9-9a1.75,1.75,0,1,0-2.475-2.475Z"/>
      <path d="M92.581,106.62l-9,9a1.75,1.75,0,0,0,2.475,2.475l9-9a1.75,1.75,0,0,0-2.475-2.475Z"/>
      <path d="M108.378,106.62l-9,9a1.75,1.75,0,0,0,2.474,2.475l9-9a1.75,1.75,0,1,0-2.474-2.475Z"/>
    </g>
  </g>
</svg>
