<svg xmlns="http://www.w3.org/2000/svg" width="128" height="128" viewBox="0 0 128 128">
  <title>HUMIDITY</title>
  <g>
    <g>
      <path d="M22.187,84.435C22.187,52.622,64,1.747,64,1.747s41.812,50.875,41.812,82.688a41.813,41.813,0,0,1-83.625,0Z" fill="#0d91bd"/>
      <rect x="40.201" y="79.485" width="47.597" height="7.999" transform="translate(-40.287 69.707) rotate(-45)" fill="#9ee2f8"/>
      <circle cx="79.625" cy="97.688" r="5" fill="#9ee2f8"/>
      <circle cx="49.797" cy="67.859" r="5" fill="#9ee2f8"/>
    </g>
    <g>
      <path d="M90.335,36.739a1.75,1.75,0,1,0-3.02,1.77c11.113,18.964,16.747,34.416,16.747,45.926a40.063,40.063,0,0,1-80.125,0c0-27.62,32.929-70.847,40.064-79.888C66.821,8.112,73.662,17,80.853,28.063a1.75,1.75,0,0,0,2.936-1.907C74.32,11.584,65.44.744,65.352.636a1.81,1.81,0,0,0-2.7,0c-1.723,2.1-42.211,51.728-42.211,83.8a43.563,43.563,0,0,0,87.125,0C107.562,72.294,101.767,56.247,90.335,36.739Z"/>
      <path d="M76.763,62.591,62.474,76.88a1.749,1.749,0,0,0,2.474,2.474L78,66.3l3.182,3.181L50,100.666l-3.182-3.182,2.052-2.051A1.75,1.75,0,0,0,46.4,92.958l-3.289,3.289a1.751,1.751,0,0,0,0,2.475l5.657,5.656a1.748,1.748,0,0,0,2.474,0L84.894,70.722a1.751,1.751,0,0,0,0-2.475l-5.657-5.656A1.748,1.748,0,0,0,76.763,62.591Z"/>
      <path d="M52.981,88.847a1.752,1.752,0,0,0,2.475,0l2.906-2.907a1.749,1.749,0,0,0-2.474-2.474l-2.907,2.906A1.751,1.751,0,0,0,52.981,88.847Z"/>
      <path d="M79.625,90.938a6.75,6.75,0,1,0,6.75,6.75A6.758,6.758,0,0,0,79.625,90.938Zm0,10a3.25,3.25,0,1,1,3.25-3.25A3.254,3.254,0,0,1,79.625,100.938Z"/>
      <path d="M49.8,61.109a6.75,6.75,0,1,0,6.75,6.75A6.758,6.758,0,0,0,49.8,61.109Zm0,10a3.25,3.25,0,1,1,3.25-3.25A3.254,3.254,0,0,1,49.8,71.109Z"/>
    </g>
  </g>
</svg>
