<svg xmlns="http://www.w3.org/2000/svg" width="128" height="128" viewBox="0 0 128 128">
  <title>MOON</title>
  <g>
    <g>
      <circle cx="64" cy="64" r="62.25" fill="#ebe1dc"/>
      <path d="M11.75,65.75A1.75,1.75,0,0,1,10,64,53.519,53.519,0,0,1,20.57,31.941a1.75,1.75,0,0,1,2.813,2.082A50.043,50.043,0,0,0,13.5,64,1.75,1.75,0,0,1,11.75,65.75Z" fill="#c8beb9"/>
      <circle cx="74.814" cy="30.421" r="7.903" transform="translate(26.756 95.328) rotate(-75.611)" fill="#c8beb9"/>
      <circle cx="32.95" cy="85.993" r="10.2" fill="#c8beb9"/>
      <circle cx="98.982" cy="67.233" r="14.768" transform="translate(12.923 150.369) rotate(-78.196)" fill="#c8beb9"/>
    </g>
    <g>
      <path d="M121.81,36.508a1.75,1.75,0,1,0-3.16,1.506A59.938,59.938,0,0,1,124.5,64,60.453,60.453,0,1,1,89.406,9.076,1.75,1.75,0,0,0,90.877,5.9,63.962,63.962,0,1,0,121.81,36.508Z"/>
      <path d="M108.9,23.454a1.75,1.75,0,0,0,2.6-2.346A64.911,64.911,0,0,0,105.88,15.6a1.75,1.75,0,0,0-2.291,2.647A60.853,60.853,0,0,1,108.9,23.454Z"/>
      <path d="M23.018,31.576a1.748,1.748,0,0,0-2.448.365A53.519,53.519,0,0,0,10,64a1.75,1.75,0,0,0,3.5,0,50.043,50.043,0,0,1,9.883-29.977A1.75,1.75,0,0,0,23.018,31.576Z"/>
      <path d="M74.814,20.769a9.652,9.652,0,1,0,9.653,9.652A9.663,9.663,0,0,0,74.814,20.769Zm0,15.8a6.152,6.152,0,1,1,6.153-6.152A6.159,6.159,0,0,1,74.814,36.573Z"/>
      <path d="M32.95,97.943A11.963,11.963,0,0,0,44.9,85.993a1.75,1.75,0,0,0-3.5,0,8.45,8.45,0,1,1-8.45-8.45,1.75,1.75,0,0,0,0-3.5,11.95,11.95,0,0,0,0,23.9Z"/>
      <path d="M82.464,67.233A16.518,16.518,0,1,0,98.982,50.715,16.537,16.537,0,0,0,82.464,67.233ZM98.982,54.215A13.018,13.018,0,1,1,85.964,67.233,13.033,13.033,0,0,1,98.982,54.215Z"/>
    </g>
  </g>
</svg>
