<svg xmlns="http://www.w3.org/2000/svg" width="128" height="128" viewBox="0 0 128 128">
  <title>SNOW</title>
  <g>
    <g>
      <path d="M107.118,75.337h-5.351l2.675-4.635a2.46,2.46,0,0,0-.9-3.361l-1.421-.82a2.461,2.461,0,0,0-3.361.9l-2.675,4.634-2.676-4.634a2.461,2.461,0,0,0-3.361-.9l-1.42.82a2.461,2.461,0,0,0-.9,3.361L90.4,75.337H85.052a2.46,2.46,0,0,0-2.461,2.46v1.64A2.461,2.461,0,0,0,85.052,81.9H90.4l-2.676,4.634a2.461,2.461,0,0,0,.9,3.361l1.42.82a2.461,2.461,0,0,0,3.361-.9l2.676-4.634,2.675,4.634a2.461,2.461,0,0,0,3.361.9l1.421-.82a2.46,2.46,0,0,0,.9-3.361L101.767,81.9h5.351a2.46,2.46,0,0,0,2.46-2.461V77.8A2.46,2.46,0,0,0,107.118,75.337Z" fill="#0d91bd"/>
      <path d="M107.118,75.337h-5.351l2.675-4.635a2.46,2.46,0,0,0-.9-3.361l-1.421-.82a2.461,2.461,0,0,0-3.361.9l-2.675,4.634-2.676-4.634a2.461,2.461,0,0,0-3.361-.9l-1.42.82a2.461,2.461,0,0,0-.9,3.361L90.4,75.337H85.052a2.46,2.46,0,0,0-2.461,2.46v1.64A2.461,2.461,0,0,0,85.052,81.9H90.4l-2.676,4.634a2.461,2.461,0,0,0,.9,3.361l1.42.82a2.461,2.461,0,0,0,3.361-.9l2.676-4.634,2.675,4.634a2.461,2.461,0,0,0,3.361.9l1.421-.82a2.46,2.46,0,0,0,.9-3.361L101.767,81.9h5.351a2.46,2.46,0,0,0,2.46-2.461V77.8A2.46,2.46,0,0,0,107.118,75.337Z" fill="#0d91bd"/>
      <path d="M75.033,101.42H69.682l2.676-4.635a2.46,2.46,0,0,0-.9-3.36L70.036,92.6a2.461,2.461,0,0,0-3.361.9L64,98.139l-2.675-4.634a2.461,2.461,0,0,0-3.361-.9l-1.421.821a2.46,2.46,0,0,0-.9,3.36l2.676,4.635H52.967a2.46,2.46,0,0,0-2.46,2.46v1.64a2.46,2.46,0,0,0,2.46,2.461h5.351l-2.676,4.634a2.461,2.461,0,0,0,.9,3.361l1.421.82a2.461,2.461,0,0,0,3.361-.9L64,111.262l2.675,4.634a2.461,2.461,0,0,0,3.361.9l1.421-.82a2.461,2.461,0,0,0,.9-3.361l-2.676-4.634h5.351a2.46,2.46,0,0,0,2.46-2.461v-1.64A2.46,2.46,0,0,0,75.033,101.42Z" fill="#0d91bd"/>
      <path d="M107.118,75.337h-5.351l2.675-4.635a2.46,2.46,0,0,0-.9-3.361l-1.421-.82a2.461,2.461,0,0,0-3.361.9l-2.675,4.634-2.676-4.634a2.461,2.461,0,0,0-3.361-.9l-1.42.82a2.461,2.461,0,0,0-.9,3.361L90.4,75.337H85.052a2.46,2.46,0,0,0-2.461,2.46v1.64A2.461,2.461,0,0,0,85.052,81.9H90.4l-2.676,4.634a2.461,2.461,0,0,0,.9,3.361l1.42.82a2.461,2.461,0,0,0,3.361-.9l2.676-4.634,2.675,4.634a2.461,2.461,0,0,0,3.361.9l1.421-.82a2.46,2.46,0,0,0,.9-3.361L101.767,81.9h5.351a2.46,2.46,0,0,0,2.46-2.461V77.8A2.46,2.46,0,0,0,107.118,75.337Z" fill="#0d91bd"/>
      <path d="M111.419,39.655c-.167,0-.328.02-.494.025A29.275,29.275,0,0,0,54.447,29.339,22.84,22.84,0,0,0,17.7,39.708c-.35-.024-.7-.053-1.057-.053a14.891,14.891,0,1,0,0,29.781H87.407a2.45,2.45,0,0,1,1.221-2.1l1.42-.82a2.461,2.461,0,0,1,3.361.9l1.163,2.014H97.6l1.163-2.014a2.461,2.461,0,0,1,3.361-.9l1.421.82a2.452,2.452,0,0,1,1.221,2.1h6.656a14.891,14.891,0,0,0,0-29.781Z" fill="#beebfa"/>
      <path d="M42.948,75.337H37.6L40.273,70.7a2.438,2.438,0,0,0,.32-1.266H33.428l-1.513,2.62L30.4,69.436H23.237a2.43,2.43,0,0,0,.321,1.266l2.675,4.635H20.882a2.46,2.46,0,0,0-2.46,2.46v1.64a2.46,2.46,0,0,0,2.46,2.461h5.351l-2.675,4.634a2.46,2.46,0,0,0,.9,3.361l1.421.82a2.461,2.461,0,0,0,3.361-.9l2.675-4.634,2.676,4.634a2.46,2.46,0,0,0,3.36.9l1.421-.82a2.461,2.461,0,0,0,.9-3.361L37.6,81.9h5.351a2.461,2.461,0,0,0,2.461-2.461V77.8A2.46,2.46,0,0,0,42.948,75.337Z" fill="#0d91bd"/>
      <path d="M27.234,44.47a1.753,1.753,0,0,1-1.669-2.278A14.536,14.536,0,0,1,39.484,32a1.75,1.75,0,0,1,0,3.5A11.048,11.048,0,0,0,28.9,43.246,1.751,1.751,0,0,1,27.234,44.47Z" fill="#9ee2f8"/>
      <path d="M100.926,41.59a1.75,1.75,0,0,1-1.749-1.722A17.6,17.6,0,0,0,81.656,22.624a1.75,1.75,0,0,1,0-3.5,21.119,21.119,0,0,1,21.021,20.688,1.752,1.752,0,0,1-1.722,1.778Z" fill="#9ee2f8"/>
    </g>
    <g>
      <path d="M25.565,42.192A1.75,1.75,0,1,0,28.9,43.246,11.048,11.048,0,0,1,39.484,35.5a1.75,1.75,0,0,0,0-3.5A14.536,14.536,0,0,0,25.565,42.192Z"/>
      <path d="M81.656,19.124a1.75,1.75,0,0,0,0,3.5A17.6,17.6,0,0,1,99.177,39.868a1.75,1.75,0,0,0,1.749,1.722h.029a1.752,1.752,0,0,0,1.722-1.778A21.119,21.119,0,0,0,81.656,19.124Z"/>
      <path d="M75.033,99.67h-2.32l1.16-2.009a4.21,4.21,0,0,0-1.541-5.752l-1.421-.82A4.209,4.209,0,0,0,65.16,92.63L64,94.639,62.84,92.63a4.209,4.209,0,0,0-5.751-1.541,1.75,1.75,0,1,0,1.75,3.031.7.7,0,0,1,.539-.071.707.707,0,0,1,.431.331l2.675,4.634a1.751,1.751,0,0,0,3.032,0l2.675-4.635a.711.711,0,0,1,.97-.259l1.421.82a.711.711,0,0,1,.26.971l-2.676,4.634a1.75,1.75,0,0,0,1.516,2.625h5.351a.71.71,0,0,1,.71.71v1.64a.71.71,0,0,1-.71.71H69.682a1.75,1.75,0,0,0-1.516,2.625l2.676,4.636a.709.709,0,0,1-.26.969l-1.421.821a.718.718,0,0,1-.539.071.709.709,0,0,1-.431-.332l-2.675-4.633a1.751,1.751,0,0,0-3.032,0l-2.675,4.634a.71.71,0,0,1-.97.26l-1.421-.821a.7.7,0,0,1-.331-.431.71.71,0,0,1,.071-.539l2.676-4.635a1.75,1.75,0,0,0-1.516-2.625H52.967a.71.71,0,0,1-.71-.71v-1.64a.71.71,0,0,1,.71-.71h5.351a1.75,1.75,0,0,0,0-3.5H52.967a4.215,4.215,0,0,0-4.21,4.21v1.64a4.214,4.214,0,0,0,4.21,4.21h2.32l-1.16,2.01a4.21,4.21,0,0,0,1.541,5.752l1.421.82a4.21,4.21,0,0,0,5.751-1.542L64,114.761l1.16,2.009a4.21,4.21,0,0,0,5.751,1.542l1.421-.82a4.21,4.21,0,0,0,1.541-5.752l-1.16-2.01h2.32a4.215,4.215,0,0,0,4.21-4.21v-1.64A4.215,4.215,0,0,0,75.033,99.67Z"/>
      <path d="M93.79,15.436a27.406,27.406,0,0,1,3.1,1.783,1.75,1.75,0,0,0,1.941-2.913A31.092,31.092,0,0,0,95.335,12.3a1.75,1.75,0,0,0-1.545,3.141Z"/>
      <path d="M112.6,37.947a31.01,31.01,0,0,0-4.292-13.679,1.75,1.75,0,0,0-3,1.794,27.518,27.518,0,0,1,3.871,13.646,1.75,1.75,0,0,0,1.806,1.721l.268-.015c.056,0,.111-.009.169-.009a13.141,13.141,0,1,1,0,26.281h-5.3c-.005-.01-.012-.019-.016-.029-.035-.073-.079-.14-.118-.21a4.182,4.182,0,0,0-.271-.437c-.052-.071-.106-.139-.162-.208a4.339,4.339,0,0,0-.354-.377c-.057-.053-.111-.109-.171-.16a4.186,4.186,0,0,0-.614-.439L103,65.005a4.216,4.216,0,0,0-5.752,1.542l-.658,1.139h-1l-.658-1.14a4.217,4.217,0,0,0-5.751-1.541l-1.421.821a4.2,4.2,0,0,0-.629.452c-.055.048-.1.1-.156.148a4.068,4.068,0,0,0-.384.415c-.044.055-.088.109-.129.166a4.109,4.109,0,0,0-.328.534c-.019.037-.042.071-.06.108-.006.013-.015.024-.021.037h-69.4a13.141,13.141,0,1,1,0-26.281c.276,0,.547.021.818.041l.115.008a1.762,1.762,0,0,0,1.793-1.219A21.09,21.09,0,0,1,53.3,30.661a1.75,1.75,0,0,0,2.772-.675A27.4,27.4,0,0,1,81.656,12.624a1.75,1.75,0,0,0,0-3.5,30.858,30.858,0,0,0-27.9,17.446A24.591,24.591,0,0,0,16.47,37.906a16.64,16.64,0,0,0,.171,33.28h5.21a3.926,3.926,0,0,0,.191.391l1.16,2.009h-2.32a4.215,4.215,0,0,0-4.21,4.211v1.64a4.215,4.215,0,0,0,4.21,4.211H23.2l-1.16,2.008a4.21,4.21,0,0,0,1.541,5.752l1.421.82a4.211,4.211,0,0,0,5.752-1.54l1.159-2.009,1.16,2.009a4.207,4.207,0,0,0,5.751,1.541l1.421-.821a4.216,4.216,0,0,0,1.542-5.751l-1.16-2.009h2.319a4.215,4.215,0,0,0,4.21-4.211V77.8a4.215,4.215,0,0,0-4.21-4.211H40.629l1.16-2.009a4.281,4.281,0,0,0,.191-.391H86.035a4.138,4.138,0,0,0,.176.391l1.16,2.009H85.052a4.215,4.215,0,0,0-4.21,4.211v1.64a4.215,4.215,0,0,0,4.21,4.211h2.319l-1.16,2.009a4.216,4.216,0,0,0,1.542,5.751l1.421.821a4.212,4.212,0,0,0,5.751-1.541l1.16-2.009,1.159,2.009A4.209,4.209,0,0,0,103,92.229l1.421-.821a4.209,4.209,0,0,0,1.541-5.751l-1.16-2.009h2.32a4.215,4.215,0,0,0,4.21-4.211V77.8a4.215,4.215,0,0,0-4.21-4.211H104.8l1.16-2.008a4.173,4.173,0,0,0,.178-.392h5.283A16.641,16.641,0,0,0,112.6,37.947ZM36.082,76.211a1.749,1.749,0,0,0,1.516.875h5.35a.711.711,0,0,1,.71.711v1.64a.711.711,0,0,1-.71.711H37.6a1.75,1.75,0,0,0-1.516,2.625l2.676,4.633a.712.712,0,0,1-.261.971l-1.421.82a.709.709,0,0,1-.97-.259L33.431,84.3a1.751,1.751,0,0,0-3.032,0l-2.674,4.634a.712.712,0,0,1-.432.332.7.7,0,0,1-.539-.072l-1.421-.82a.71.71,0,0,1-.26-.97l2.676-4.634a1.75,1.75,0,0,0-1.516-2.625H20.882a.711.711,0,0,1-.71-.711V77.8a.711.711,0,0,1,.71-.711h5.351a1.75,1.75,0,0,0,1.516-2.625l-1.891-3.275h3.535L30.4,72.931a1.751,1.751,0,0,0,3.032,0l1.006-1.745h3.536l-1.891,3.275A1.748,1.748,0,0,0,36.082,76.211Zm71.036.875a.711.711,0,0,1,.71.711v1.64a.711.711,0,0,1-.71.711h-5.351a1.75,1.75,0,0,0-1.516,2.625l2.676,4.634a.71.71,0,0,1-.26.97l-1.421.82a.712.712,0,0,1-.971-.259L97.6,84.3a1.751,1.751,0,0,0-3.032,0l-2.675,4.634a.712.712,0,0,1-.432.332.7.7,0,0,1-.538-.072l-1.421-.82a.711.711,0,0,1-.261-.97l2.676-4.634A1.75,1.75,0,0,0,90.4,80.148h-5.35a.711.711,0,0,1-.71-.711V77.8a.711.711,0,0,1,.71-.711H90.4a1.75,1.75,0,0,0,1.516-2.625l-2.676-4.633a.688.688,0,0,1-.081-.379.723.723,0,0,1,.081-.3c.009-.017.014-.034.024-.049a.678.678,0,0,1,.237-.239l1.421-.82a.712.712,0,0,1,.97.26l1.163,2.014v0l1.511,2.618a1.751,1.751,0,0,0,3.032,0l2.674-4.634a.711.711,0,0,1,.971-.26l1.421.82a.682.682,0,0,1,.251.252v0a.745.745,0,0,1,.094.352c0,.02.006.039.007.06a.708.708,0,0,1-.093.3l-2.676,4.634a1.75,1.75,0,0,0,1.516,2.625Z"/>
    </g>
  </g>
</svg>
