<svg xmlns="http://www.w3.org/2000/svg" width="128" height="128" viewBox="0 0 128 128">
  <title>STORM</title>
  <g>
    <g>
      <g>
        <path d="M111.922,75.429a1.75,1.75,0,0,1-1.237-2.987l5.5-5.5a1.75,1.75,0,1,1,2.475,2.475l-5.5,5.5A1.746,1.746,0,0,1,111.922,75.429Z" fill="#beebfa"/>
        <path d="M83.732,103.619a1.75,1.75,0,0,1-1.237-2.987l7.327-7.327A1.75,1.75,0,0,1,92.3,95.779l-7.327,7.327A1.744,1.744,0,0,1,83.732,103.619Z" fill="#beebfa"/>
        <path d="M97.268,90.084A1.75,1.75,0,0,1,96.03,87.1l7.327-7.328a1.75,1.75,0,0,1,2.475,2.475l-7.327,7.327A1.743,1.743,0,0,1,97.268,90.084Z" fill="#beebfa"/>
        <path d="M71.044,116.308a1.751,1.751,0,0,1-1.237-2.988l4.242-4.242a1.749,1.749,0,1,1,2.474,2.474L72.281,115.8A1.743,1.743,0,0,1,71.044,116.308Z" fill="#beebfa"/>
        <path d="M92.459,81.076a1.751,1.751,0,0,1-1.237-2.988l13.121-13.12a1.749,1.749,0,0,1,2.474,2.474L93.7,80.563A1.743,1.743,0,0,1,92.459,81.076Z" fill="#beebfa"/>
        <path d="M68.511,105.024a1.75,1.75,0,0,1-1.238-2.987l6.121-6.12a1.749,1.749,0,1,1,2.474,2.474l-6.12,6.121A1.742,1.742,0,0,1,68.511,105.024Z" fill="#beebfa"/>
        <path d="M57.227,116.308a1.751,1.751,0,0,1-1.237-2.988l4.243-4.242a1.749,1.749,0,1,1,2.474,2.474L58.465,115.8A1.745,1.745,0,0,1,57.227,116.308Z" fill="#beebfa"/>
        <path d="M34.25,75.429a1.75,1.75,0,0,1-1.237-2.987L40,65.458a1.75,1.75,0,1,1,2.475,2.474l-6.985,6.985A1.746,1.746,0,0,1,34.25,75.429Z" fill="#beebfa"/>
        <path d="M19.454,90.226a1.751,1.751,0,0,1-1.238-2.988l7.4-7.4a1.75,1.75,0,1,1,2.475,2.475l-7.4,7.4A1.743,1.743,0,0,1,19.454,90.226Z" fill="#beebfa"/>
        <path d="M7.812,101.867a1.751,1.751,0,0,1-1.237-2.988l4.243-4.242a1.749,1.749,0,1,1,2.474,2.474L9.05,101.354A1.745,1.745,0,0,1,7.812,101.867Z" fill="#beebfa"/>
        <g>
          <path d="M20.434,75.429A1.75,1.75,0,0,1,19.2,72.442l7.473-7.474a1.75,1.75,0,0,1,2.475,2.474l-7.474,7.475A1.744,1.744,0,0,1,20.434,75.429Z" fill="#beebfa"/>
          <path d="M8.967,86.9a1.75,1.75,0,0,1-1.238-2.987l4.243-4.243a1.75,1.75,0,0,1,2.475,2.475L10.2,86.383A1.743,1.743,0,0,1,8.967,86.9Z" fill="#beebfa"/>
        </g>
      </g>
      <polygon points="53.784 69.436 30.053 93.167 48.628 93.167 24.669 117.126 83.315 85.773 58.097 85.773 74.433 69.436 53.784 69.436" fill="#ffb655"/>
      <path d="M111.419,39.655c-.167,0-.328.02-.494.025A29.275,29.275,0,0,0,54.447,29.339,22.84,22.84,0,0,0,17.7,39.708c-.35-.024-.7-.053-1.057-.053a14.891,14.891,0,1,0,0,29.781h94.778a14.891,14.891,0,0,0,0-29.781Z" fill="#0d91bd"/>
      <path d="M27.235,44.47a1.752,1.752,0,0,1-1.67-2.278A14.536,14.536,0,0,1,39.484,32a1.75,1.75,0,0,1,0,3.5A11.049,11.049,0,0,0,28.9,43.246,1.752,1.752,0,0,1,27.235,44.47Z" fill="#09607d"/>
      <path d="M100.926,41.59a1.75,1.75,0,0,1-1.749-1.722A17.6,17.6,0,0,0,81.656,22.624a1.75,1.75,0,0,1,0-3.5,21.119,21.119,0,0,1,21.021,20.688,1.752,1.752,0,0,1-1.722,1.778Z" fill="#09607d"/>
    </g>
    <g>
      <path d="M42.6,83.1l2.533-2.533a1.75,1.75,0,0,0-2.475-2.475l-2.533,2.534A1.75,1.75,0,1,0,42.6,83.1Z"/>
      <path d="M128.06,54.546a16.664,16.664,0,0,0-15.458-16.6,31.026,31.026,0,0,0-59.781-9.255,1.75,1.75,0,1,0,3.252,1.294,27.526,27.526,0,0,1,53.1,9.722,1.751,1.751,0,0,0,.545,1.241,1.773,1.773,0,0,0,1.267.48l.259-.014c.057,0,.114-.01.172-.01a13.141,13.141,0,1,1,0,26.281H16.641a13.141,13.141,0,1,1,0-26.281c.276,0,.547.021.819.041l.114.008a1.755,1.755,0,0,0,1.793-1.219A21.011,21.011,0,0,1,39.484,25.5a1.75,1.75,0,0,0,0-3.5A24.489,24.489,0,0,0,16.47,37.906a16.64,16.64,0,0,0,.171,33.28h3.811L19.2,72.442a1.75,1.75,0,0,0,2.474,2.475l3.73-3.731h8.867l-1.255,1.256a1.75,1.75,0,0,0,2.474,2.475l3.73-3.731H49.559l-1.088,1.089a1.749,1.749,0,0,0,2.474,2.474l3.564-3.563h15.7L56.859,84.536A1.75,1.75,0,0,0,58.1,87.523H76.33l-42.08,22.5L49.865,94.4a1.749,1.749,0,0,0-1.237-2.987H34.278l2.507-2.507a1.75,1.75,0,0,0-2.475-2.475l-5.494,5.5a1.75,1.75,0,0,0,1.237,2.987H44.4L23.431,115.889a1.75,1.75,0,0,0,2.063,2.78L84.141,87.316a1.75,1.75,0,0,0-.826-3.293H62.321L75.157,71.186H98.124l-6.9,6.9A1.75,1.75,0,1,0,93.7,80.563l9.377-9.377h8.346c.185,0,.365-.021.549-.027l-1.283,1.283a1.75,1.75,0,0,0,2.474,2.475l5.328-5.328A16.648,16.648,0,0,0,128.06,54.546Z"/>
      <path d="M39.484,32A14.536,14.536,0,0,0,25.565,42.192,1.75,1.75,0,1,0,28.9,43.246,11.049,11.049,0,0,1,39.484,35.5a1.75,1.75,0,0,0,0-3.5Z"/>
      <path d="M99.177,39.868a1.75,1.75,0,0,0,1.749,1.722h.029a1.752,1.752,0,0,0,1.722-1.778A21.119,21.119,0,0,0,81.656,19.124a1.75,1.75,0,0,0,0,3.5A17.6,17.6,0,0,1,99.177,39.868Z"/>
      <path d="M89.822,93.305,82.5,100.632a1.75,1.75,0,1,0,2.475,2.474L92.3,95.779a1.75,1.75,0,0,0-2.475-2.474Z"/>
      <path d="M103.357,79.769,96.03,87.1a1.75,1.75,0,1,0,2.475,2.474l7.327-7.327a1.75,1.75,0,0,0-2.475-2.475Z"/>
      <path d="M74.049,109.078l-4.242,4.242a1.75,1.75,0,1,0,2.474,2.475l4.242-4.243a1.749,1.749,0,1,0-2.474-2.474Z"/>
      <path d="M75.868,98.391a1.749,1.749,0,1,0-2.474-2.474l-6.121,6.12a1.75,1.75,0,0,0,2.475,2.475Z"/>
      <path d="M60.233,109.078,55.99,113.32a1.75,1.75,0,1,0,2.475,2.475l4.242-4.243a1.749,1.749,0,1,0-2.474-2.474Z"/>
      <path d="M28.089,79.84a1.749,1.749,0,0,0-2.475,0l-7.4,7.4a1.75,1.75,0,1,0,2.475,2.475l7.4-7.4A1.751,1.751,0,0,0,28.089,79.84Z"/>
      <path d="M10.818,94.637,6.575,98.879a1.75,1.75,0,1,0,2.475,2.475l4.242-4.243a1.749,1.749,0,1,0-2.474-2.474Z"/>
      <path d="M11.972,79.666,7.729,83.909A1.75,1.75,0,1,0,10.2,86.383l4.243-4.242a1.75,1.75,0,0,0-2.475-2.475Z"/>
    </g>
  </g>
</svg>
