<svg xmlns="http://www.w3.org/2000/svg" width="128" height="128" viewBox="0 0 128 128">
  <title>SUN</title>
  <g>
    <g>
      <path d="M112.411,77.836,126.25,64,112.411,50.158a15,15,0,0,1-4.394-10.607V19.98H88.446a15,15,0,0,1-10.607-4.394L64,1.747,50.161,15.586A15,15,0,0,1,39.554,19.98H19.983V39.551a15,15,0,0,1-4.394,10.607L1.75,64,15.589,77.836a15,15,0,0,1,4.394,10.607v19.571H39.554a15,15,0,0,1,10.607,4.394L64,126.247l13.839-13.839a15,15,0,0,1,10.607-4.394h19.571V88.443A15,15,0,0,1,112.411,77.836Z" fill="#ffb655"/>
      <circle cx="64" cy="63.997" r="35.739" fill="#ffe477"/>
      <path d="M89.738,65.747A1.749,1.749,0,0,1,87.988,64,24.016,24.016,0,0,0,64,40.008a1.75,1.75,0,0,1,0-3.5A27.52,27.52,0,0,1,91.488,64,1.749,1.749,0,0,1,89.738,65.747Z" fill="#ffb655"/>
    </g>
    <g>
      <path d="M86.942,89.075a34.09,34.09,0,0,1-7.284,5.1,1.75,1.75,0,1,0,1.615,3.105,37.588,37.588,0,0,0,8.033-5.621,1.75,1.75,0,0,0-2.364-2.582Z"/>
      <path d="M64,101.485a1.75,1.75,0,0,0,0-3.5A33.956,33.956,0,1,1,95.318,77.227a1.75,1.75,0,1,0,3.223,1.363A37.495,37.495,0,1,0,64,101.485Z"/>
      <path d="M91.488,64A27.52,27.52,0,0,0,64,36.508a1.75,1.75,0,0,0,0,3.5A24.016,24.016,0,0,1,87.988,64a1.75,1.75,0,1,0,3.5,0Z"/>
      <path d="M127.487,62.76,113.648,48.921a13.162,13.162,0,0,1-3.88-9.37V19.979a1.751,1.751,0,0,0-1.75-1.75H88.446a13.162,13.162,0,0,1-9.37-3.88L65.237.51a1.748,1.748,0,0,0-2.474,0L48.923,14.349a13.158,13.158,0,0,1-9.369,3.88,1.75,1.75,0,0,0,0,3.5A16.636,16.636,0,0,0,51.4,16.823L64,4.222l12.6,12.6a16.64,16.64,0,0,0,11.844,4.906h17.822V39.551A16.644,16.644,0,0,0,111.174,51.4l12.6,12.6-12.6,12.6a16.64,16.64,0,0,0-4.906,11.844v17.822H88.446A16.64,16.64,0,0,0,76.6,111.171L64,123.772l-12.6-12.6a16.636,16.636,0,0,0-11.844-4.906H21.732V88.443a16.643,16.643,0,0,0-4.9-11.844L4.225,64l12.6-12.6a16.647,16.647,0,0,0,4.9-11.845V19.979a1.75,1.75,0,0,0-3.5,0V39.551a13.168,13.168,0,0,1-3.88,9.37L.513,62.76a1.748,1.748,0,0,0,0,2.474L14.352,79.073a13.168,13.168,0,0,1,3.88,9.37v19.572a1.751,1.751,0,0,0,1.75,1.75H39.554a13.159,13.159,0,0,1,9.369,3.881l13.84,13.838a1.748,1.748,0,0,0,2.474,0l13.839-13.838a13.163,13.163,0,0,1,9.37-3.881h19.572a1.751,1.751,0,0,0,1.75-1.75V88.443a13.162,13.162,0,0,1,3.88-9.37l13.839-13.839A1.748,1.748,0,0,0,127.487,62.76Z"/>
    </g>
  </g>
</svg>
