<svg xmlns="http://www.w3.org/2000/svg" width="128" height="128" viewBox="0 0 128 128">
  <title>THERMOMETER</title>
  <g>
    <g>
      <path d="M76.375,14.125a12.375,12.375,0,0,0-24.75,0V71h24.75Z" fill="#9ee2f8"/>
      <path d="M68.375,14.125a4.375,4.375,0,0,0-8.75,0V71h8.75Z" fill="#ffe477"/>
      <path d="M76.375,79.869V71H51.625v8.869a24.843,24.843,0,1,0,24.75,0Z" fill="#0d91bd"/>
      <circle cx="64" cy="101.407" r="16.843" fill="#09607d"/>
    </g>
    <g>
      <path d="M51.625,48.125a1.749,1.749,0,0,0,1.75-1.75V41.75a1.75,1.75,0,0,0-3.5,0v4.625A1.749,1.749,0,0,0,51.625,48.125Z"/>
      <path d="M78.125,78.88V14.125a14.125,14.125,0,0,0-28.25,0v14.75a1.75,1.75,0,0,0,3.5,0V14.125a10.625,10.625,0,0,1,21.25,0V69.25h-4.5V14.125a6.125,6.125,0,0,0-12.25,0V69.25h-4.5v-10a1.75,1.75,0,0,0-3.5,0V78.88a26.593,26.593,0,1,0,28.25,0ZM61.375,14.125a2.625,2.625,0,0,1,5.25,0V69.25h-5.25ZM64,124.5A23.091,23.091,0,0,1,52.5,81.386a1.75,1.75,0,0,0,.877-1.517V72.75h21.25v7.119a1.75,1.75,0,0,0,.877,1.517A23.091,23.091,0,0,1,64,124.5Z"/>
      <path d="M77.147,88.26a1.749,1.749,0,1,0-2.474,2.474A15.095,15.095,0,1,1,64,86.315a1.75,1.75,0,0,0,0-3.5A18.592,18.592,0,1,0,77.147,88.26Z"/>
    </g>
  </g>
</svg>
