<?xml version="1.0" encoding="UTF-8"?>
<svg data-name="Layer 1" version="1.1" viewBox="0 0 944.67 1e3" xmlns="http://www.w3.org/2000/svg" xmlns:cc="http://creativecommons.org/ns#" xmlns:dc="http://purl.org/dc/elements/1.1/" xmlns:rdf="http://www.w3.org/1999/02/22-rdf-syntax-ns#">
 <title>ticket,tv,bank,dollar</title>
 <path d="m481.38 943.05c-1.184-20.519-1.289-40.255 6.21-60.359 6.041-16.194 18.824-39.081 39.229-37.544 32.372 2.438 49.333 53.423 49.357 53.5-0.639-1.921 7.946-10.2 9.063-11.412a101.11 101.11 0 0 1 27.557-21.244c22.918-11.865 56.635-14.714 79.286-1.033 9.608 5.8 17.489 14.849 20.648 25.62 2 6.806 2.079 14.019 1.757 21.1-1.511 33.2-16.507 58.342-47.633 71.226a157.74 157.74 0 0 1-33.066 10.106c-18.9 3.294-38.189 1.714-57.025-1.192-3.7-0.571-29.677-4.3-36.868-10.378a2.2 2.2 0 0 0-3.331 0.611 16.982 16.982 0 0 1-10.064 7.411c-5.572 1.538-11.52 0.72-17.139-0.638-9.551-2.309-19.484-6.834-23.873-15.625-2.465-4.937-2.861-10.614-3.213-16.121-0.305-4.722-0.628-9.395-0.895-14.028z" fill="#fb7691"/>
 <g fill="#ffeede">
  <path d="m697.92 896.47a3.856 3.856 0 0 1-3.061-1.5 46.11 46.11 0 0 0-12.582-11.131c-8.606-5.2-20.518-7.333-33.543-6.019a3.863 3.863 0 1 1-0.777-7.687c14.683-1.484 28.286 1.035 38.314 7.093a53.9 53.9 0 0 1 14.7 13.023 3.863 3.863 0 0 1-3.055 6.223z"/>
  <path d="m621.53 885.87a3.863 3.863 0 0 1-1.914-7.221 63.373 63.373 0 0 1 12.556-5.338 3.863 3.863 0 1 1 2.287 7.38 55.631 55.631 0 0 0-11.022 4.673 3.845 3.845 0 0 1-1.907 0.506z"/>
  <path d="M633.787,993.012a157.735,157.735,0,0,0,33.066-10.106c22.084-9.141,36.04-24.46,42.829-44.442-94.4,72.34-203.087,12.967-228.673-2.929q.151,3.741.374,7.514c.268,4.633.59,9.306.892,14.032.352,5.507.748,11.184,3.213,16.121,4.388,8.791,14.322,13.317,23.873,15.625,5.618,1.358,11.567,2.176,17.139.638a16.982,16.982,0,0,0,10.064-7.411,2.2,2.2,0,0,1,3.331-.611c7.19,6.08,33.165,9.807,36.868,10.378C595.6,994.727,614.889,996.306,633.787,993.012Z"/>
 </g>
 <path d="M611.2,1000a230.836,230.836,0,0,1-35.221-3.089l-.555-.084c-17.638-2.676-29.784-5.907-36.205-9.625a22.851,22.851,0,0,1-11.346,7.228c-7.14,1.97-14.288.717-19.719-.6-13.673-3.305-22.848-9.473-27.271-18.331-2.967-5.944-3.38-12.4-3.745-18.092l-.289-4.441c-.211-3.23-.421-6.437-.6-9.624h0c-1.137-19.7-1.57-40.752,6.526-62.456,4.825-12.934,18.816-42.8,44.441-40.881,26.375,1.987,42.812,30.882,50.245,47.869,1.22-1.308,2.386-2.492,3.215-3.335.371-.377.651-.658.792-.811a105.68,105.68,0,0,1,28.966-22.316c22.239-11.512,58.111-16.7,84.317-.868,11.234,6.785,19.59,17.2,22.927,28.58,2.287,7.8,2.274,15.894,1.96,22.787-1.66,36.485-19.229,62.679-50.808,75.75-12.725,5.267-23.577,8.579-34.152,10.421A136.881,136.881,0,0,1,611.2,1000Zm-72.7-24.223a7.307,7.307,0,0,1,4.722,1.733c1.357,1.147,7.8,5.2,33.747,9.133l.58.089c15.382,2.373,35.576,4.656,55.355,1.208,9.811-1.71,19.973-4.822,31.981-9.791,28.014-11.6,42.971-34.037,44.457-66.7.275-6.044.306-13.079-1.554-19.42-2.62-8.934-9.315-17.194-18.368-22.662-21.8-13.164-53.856-9.362-74.257,1.2a95.415,95.415,0,0,0-26.138,20.161c-.183.2-.539.562-1.016,1.046a82.446,82.446,0,0,0-6.237,6.867,6.748,6.748,0,0,1-11.677-1.616c-4.1-10.5-19.378-44.912-43.658-46.741-18.664-1.4-30.005,23.456-34.017,34.209-7.4,19.83-6.967,39.656-5.893,58.262h0c.182,3.162.391,6.342.6,9.545l.289,4.456c.317,4.95.645,10.069,2.682,14.15,3.74,7.491,13.2,11.16,20.474,12.919,6.274,1.517,10.765,1.726,14.558.679a11.9,11.9,0,0,0,6.987-5.044,7.382,7.382,0,0,1,6.381-3.679Z" fill="#172a39"/>
 <ellipse cx="527.22" cy="866.4" rx="37.872" ry="30.23" fill="#ffeede"/>
 <g fill="#172a39">
  <path d="m527.22 901.78c-23.722 0-43.022-15.872-43.022-35.381s19.3-35.38 43.022-35.38 43.022 15.872 43.022 35.38-19.3 35.381-43.022 35.381zm0-60.46c-18.042 0-32.721 11.251-32.721 25.08s14.679 25.08 32.721 25.08 32.721-11.251 32.721-25.08-14.679-25.08-32.721-25.08z"/>
  <path d="m606.62 978.75a209.18 209.18 0 0 1-38.013-3.6c-43.135-7.966-77.528-27.3-90.313-35.243l5.436-8.749c29.412 18.271 132.4 72.5 222.82 3.215l6.266 8.176c-31.437 24.088-67.036 36.201-106.2 36.201z"/>
  <path d="m562.58 937.04a5.151 5.151 0 0 1-5.15-5.15c0-3.033 7.81-26.886 19.567-43.756a5.15 5.15 0 0 1 8.451 5.89c-10.4 14.921-17.121 35.371-17.743 38.383a5.15 5.15 0 0 1-5.125 4.633zm5.15-5.15c0 0.145-6e-3 0.289-0.018 0.431a3.539 3.539 0 0 0 0.019-0.432z"/>
 </g>
 <path d="m435.8 939.03c1.184-20.519 1.289-40.255-6.21-60.359-6.041-16.194-18.824-39.081-39.229-37.544-32.372 2.438-49.333 53.423-49.357 53.5 0.639-1.921-7.946-10.2-9.063-11.412a101.11 101.11 0 0 0-27.552-21.239c-22.918-11.865-56.635-14.714-79.286-1.033-9.608 5.8-17.489 14.849-20.648 25.62-2 6.806-2.079 14.019-1.757 21.1 1.511 33.2 16.507 58.342 47.633 71.226a157.74 157.74 0 0 0 33.069 10.106c18.9 3.294 38.189 1.714 57.025-1.192 3.7-0.571 29.677-4.3 36.868-10.378a2.2 2.2 0 0 1 3.331 0.611 16.982 16.982 0 0 0 10.064 7.411c5.572 1.538 11.52 0.72 17.139-0.638 9.551-2.309 19.484-6.834 23.873-15.625 2.465-4.937 2.861-10.614 3.213-16.121 0.298-4.727 0.62-9.399 0.887-14.033z" fill="#fb7691"/>
 <g fill="#ffeede">
  <path d="m219.27 892.45a3.863 3.863 0 0 1-3.055-6.222 53.886 53.886 0 0 1 14.7-13.024c10.028-6.057 23.637-8.577 38.313-7.093a3.863 3.863 0 1 1-0.776 7.687c-13.027-1.315-24.938 0.822-33.544 6.019a46.106 46.106 0 0 0-12.581 11.13 3.855 3.855 0 0 1-3.057 1.503z"/>
  <path d="m295.66 881.85a3.843 3.843 0 0 1-1.906-0.506 55.75 55.75 0 0 0-11.023-4.673 3.863 3.863 0 1 1 2.288-7.378 63.428 63.428 0 0 1 12.555 5.337 3.863 3.863 0 0 1-1.914 7.221z"/>
  <path d="m283.4 988.99a157.74 157.74 0 0 1-33.066-10.106c-22.084-9.141-36.04-24.46-42.829-44.442 94.4 72.34 203.09 12.967 228.67-2.929q-0.151 3.741-0.374 7.514c-0.268 4.633-0.59 9.306-0.892 14.032-0.352 5.507-0.748 11.184-3.213 16.121-4.388 8.791-14.322 13.317-23.873 15.625-5.618 1.358-11.567 2.176-17.139 0.638a16.982 16.982 0 0 1-10.064-7.411 2.2 2.2 0 0 0-3.331-0.611c-7.19 6.08-33.165 9.807-36.868 10.378-18.837 2.905-38.124 4.484-57.024 1.191z"/>
 </g>
 <path d="M305.987,995.979a136.883,136.883,0,0,1-23.474-1.914c-10.577-1.843-21.429-5.155-34.151-10.421-31.579-13.071-49.149-39.264-50.809-75.75-.314-6.894-.326-14.992,1.96-22.788,3.337-11.378,11.693-21.794,22.927-28.579,26.207-15.829,62.079-10.645,84.317.868a105.689,105.689,0,0,1,28.967,22.316c.142.154.423.438.8.816.829.841,1.992,2.024,3.211,3.33,7.434-16.988,23.871-45.882,50.245-47.869,25.63-1.926,39.616,27.946,44.441,40.88,8.1,21.7,7.663,42.754,6.527,62.456h0c-.185,3.216-.4,6.452-.611,9.712l-.283,4.352c-.365,5.695-.778,12.149-3.745,18.093-4.422,8.858-13.6,15.025-27.271,18.331-5.431,1.312-12.578,2.566-19.72.6a22.5,22.5,0,0,1-11.354-7.223c-6.423,3.714-18.562,6.943-36.188,9.619l-.563.086A231.031,231.031,0,0,1,305.987,995.979ZM261.3,856.948c-11.926,0-23.762,2.491-33.539,8.4-9.053,5.468-15.748,13.728-18.368,22.661-1.86,6.342-1.83,13.376-1.554,19.421,1.486,32.665,16.444,55.106,44.458,66.7,12.006,4.97,22.167,8.081,31.981,9.791,19.778,3.447,39.972,1.164,55.355-1.208l.588-.09c25.944-3.939,32.384-7.985,33.739-9.131a7.3,7.3,0,0,1,5.961-1.627,7.393,7.393,0,0,1,5.141,3.573,11.91,11.91,0,0,0,6.987,5.044c3.792,1.046,8.283.838,14.558-.679,7.277-1.759,16.735-5.428,20.474-12.92,2.037-4.08,2.365-9.2,2.682-14.15l.284-4.366c.212-3.233.422-6.442.607-9.633h0c1.073-18.607,1.5-38.433-5.894-58.262-4.012-10.753-15.345-35.616-34.017-34.208-24.28,1.829-39.555,36.239-43.659,46.742a6.748,6.748,0,0,1-11.676,1.616,82.482,82.482,0,0,0-6.233-6.864c-.48-.487-.839-.854-1.021-1.051a95.422,95.422,0,0,0-26.138-20.161A91.494,91.494,0,0,0,261.3,856.948Z" fill="#172a39"/>
 <ellipse cx="389.96" cy="862.37" rx="37.872" ry="30.23" fill="#ffeede"/>
 <g fill="#172a39">
  <path d="m389.96 897.75c-23.722 0-43.022-15.872-43.022-35.38s19.3-35.381 43.022-35.381 43.022 15.872 43.022 35.381-19.3 35.38-43.022 35.38zm0-60.46c-18.042 0-32.721 11.251-32.721 25.08s14.679 25.08 32.721 25.08 32.721-11.251 32.721-25.08-14.681-25.08-32.721-25.08z"/>
  <path d="m310.57 974.73c-39.166 0-74.759-12.111-106.2-36.2l6.266-8.176c90.421 69.29 193.41 15.057 222.82-3.216l5.436 8.749c-12.785 7.943-47.177 27.277-90.313 35.243a209.24 209.24 0 0 1-38.011 3.6z"/>
  <path d="m354.61 933.02a5.15 5.15 0 0 1-5.125-4.633c-0.622-3.013-7.343-23.462-17.743-38.383a5.15 5.15 0 1 1 8.451-5.89c11.757 16.869 19.567 40.722 19.567 43.755a5.151 5.151 0 0 1-5.15 5.151zm-5.15-5.15a3.539 3.539 0 0 0 0.018 0.431c-0.012-0.143-0.019-0.287-0.019-0.432z"/>
 </g>
 <g fill="#172a39">
  <path d="m527.25 878.18a19.331 19.331 0 0 1-19.077-22.477c14.383-86.8-21.964-236.14-22.333-237.64a19.314 19.314 0 0 1 37.508-9.233c1.583 6.433 38.6 158.63 22.933 253.18a19.32 19.32 0 0 1-19.031 16.162z"/>
  <path d="m389.94 871.1a19.316 19.316 0 0 1-19.157-17.051c-12.619-106.87 16.937-246.22 18.2-252.1a19.314 19.314 0 0 1 37.765 8.118c-0.3 1.378-29.462 139.02-17.6 239.45a19.314 19.314 0 0 1-16.916 21.445 19.576 19.576 0 0 1-2.292 0.139z"/>
  <path d="m183.92 424.1a19.246 19.246 0 0 1-7.805-1.657c-0.407-0.18-41.146-18.236-81.777-38.637-83.354-41.852-91.851-55.569-93.92-68.025-1.637-9.848 0.444-26.716 26.521-82.979 13.627-29.4 27.442-55.746 28.024-56.853a19.314 19.314 0 0 1 34.2 17.96c-22.491 42.826-46.563 95.7-50.093 113.16 5.573 4.866 23.6 17.931 79.2 45.507 37.442 18.57 73.12 34.384 73.476 34.541a19.317 19.317 0 0 1-7.827 36.98z"/>
 </g>
 <path d="m124.75 66.374a300.96 300.96 0 0 1 41.829-25.44c8.879-4.45 34.476-16.457 39.785-1.292 2.452 7-2.2 13.661-8.218 16.879a9.386 9.386 0 0 1 2.2 8.191 24.21 24.21 0 0 1-3.391 8.083 126.2 126.2 0 0 1-29.244 34.035c2.623 7.637 4.359 15.736 3.552 23.77-1.793 17.832-18.527 27.73-30.841 38.582-10.468 9.225-22.628 16.54-36.122 20.35a8.018 8.018 0 0 0-5.753 6.524c-0.555 3.778-1.57 7.444-3.908 10.4-4.269 5.395-11.989 6.951-18.783 5.867-11.6-1.853-21.181-9.954-29.187-18.552-5.322-5.715-11.186-10.532-9.418-18.792 1.664-7.774 3.81-18.057 11.338-22.251a28.155 28.155 0 0 1 4.96-1.266 8.142 8.142 0 0 0 6.158-5.357c7.979-23.024 21.464-42.695 39.591-59.089a304.5 304.5 0 0 1 25.452-20.642z" fill="#ffeede"/>
 <path d="M73.53,216.967c-13.361-2.728-23.809-12.606-30.505-19.8-.585-.626-1.173-1.24-1.757-1.849-5.172-5.39-11.012-11.478-8.889-21.389l.041-.19c1.816-8.489,4.3-20.114,13.748-25.375.392-.219,1.586-.883,6.457-1.809A3.16,3.16,0,0,0,55,144.468c8.071-23.3,21.85-43.875,40.954-61.154a310.683,310.683,0,0,1,25.869-20.98,306.853,306.853,0,0,1,42.523-25.862c15.167-7.6,26.526-10.483,34.725-8.809a18.422,18.422,0,0,1,3.226.965,15.18,15.18,0,0,1,8.782,9.365c2.352,6.721.16,14.2-5.721,19.519l-.585.528.205.761a15.956,15.956,0,0,1,.3,6.731,28.736,28.736,0,0,1-4.007,9.788,130.476,130.476,0,0,1-27.136,32.643l-.624.541.232.793c2.348,8.03,3.165,15.161,2.5,21.8-1.67,16.6-14.333,26.9-25.5,35.983-2.349,1.909-4.778,3.883-7,5.842-11.81,10.408-24.617,17.612-38.065,21.409a3.1,3.1,0,0,0-2.181,2.512c-.508,3.423-1.572,8.469-4.925,12.7-4.958,6.269-13.956,9.219-23.482,7.7-.462-.074-.924-.156-1.378-.247ZM54.165,156.428c-1.487.291-2.653.581-3.2.74l-.171.05-.151.094c-5.2,3.245-7.008,11.713-8.462,18.517l-.041.188c-.97,4.525,1.5,7.354,6.312,12.374.626.651,1.255,1.307,1.877,1.976,5.763,6.189,14.647,14.666,25.221,16.825q.547.112,1.1.2c4.461.712,10.824.082,14.082-4.035,1.423-1.8,2.337-4.334,2.876-7.976l.04-.213.176-1.081-1.039-.346a34.6,34.6,0,0,1-7.442-3.71c-2.891-1.838-4.421-4.108-4.547-6.747a4.992,4.992,0,0,1,9.6-2.147l.157.379.347.218a20.446,20.446,0,0,0,6.389,2.906,8.586,8.586,0,0,0,1.5.177,4.734,4.734,0,0,1,.818.094,5.253,5.253,0,0,1,.975.3l.492.205.493-.2a12.879,12.879,0,0,1,1.386-.488c12-3.388,23.5-9.878,34.178-19.291,2.353-2.073,4.869-4.119,7.3-6.1,10.6-8.62,20.618-16.762,21.872-29.239.542-5.4-.186-11.37-2.227-18.26l-.053-.179-.1-.156a4.981,4.981,0,0,1-.683-1.575c-.525-2.254-2.673-5.06-5.745-7.506l-.836-.665-.808.7c-1.146.992-2.262,1.964-3.305,2.962-5.5,5.259-9.59,11.674-12.54,16.677l-.333.564,6.154,14.2a4.991,4.991,0,1,1-9.158,3.969l-3.121-7.2-1.918,3.446c-6.5,11.544-14.924,24.253-28.134,31a4.993,4.993,0,0,1-6.715-2.177,5,5,0,0,1,2.176-6.714c10.848-5.537,18.207-16.758,23.975-27,.991-1.76,1.966-3.538,2.943-5.318l.143-.261c5.449-9.941,11.083-20.22,19.631-28.395,1.437-1.374,2.948-2.676,4.281-3.826a65.736,65.736,0,0,0,5.719-5.333c1.974-2.17,4.337-5.5,4.384-9.068a5.122,5.122,0,0,0-1.856-4.394A6,6,0,0,0,155.7,74.5a9.211,9.211,0,0,0-4.332.226c-10.126,2.887-18.88,9.749-27.345,16.385a4.991,4.991,0,0,1-6.159-7.856c8.8-6.895,18.763-14.706,30.769-18.129a19.2,19.2,0,0,1,9.061-.4,16.111,16.111,0,0,1,6.545,2.926,14.6,14.6,0,0,1,2.55,2.5l.71.892.972-.6c10.975-6.74,24.654-15.982,33.087-27.735l.371-.517-.186-.61c-.036-.137-.059-.223-.09-.308a5.19,5.19,0,0,0-3.1-3.406,8.479,8.479,0,0,0-1.471-.432c-4.021-.821-12.187-.108-28.262,7.95a296.5,296.5,0,0,0-41.135,25.017,300.105,300.105,0,0,0-25.035,20.3c-17.845,16.137-30.7,35.321-38.218,57.017a13.01,13.01,0,0,1-.9,1.978l-.34.623.345.62a48.893,48.893,0,0,0,11.17,13.534,4.991,4.991,0,1,1-6.411,7.65,58.081,58.081,0,0,1-12.774-15.1l-.463-.786Zm137.77-89.937a204.2,204.2,0,0,1-21.424,14.4l-.548.329-.069.635a23.612,23.612,0,0,1-5.216,11.952l-.754.963.924.8a33.469,33.469,0,0,1,2.967,2.909l.865.964.959-.87a120.6,120.6,0,0,0,23.018-28.31c.418-.712.834-1.44,1.214-2.17Z" fill="#172a39"/>
 <path d="m795 227.04c-25.135-6.407-56.293-25.265-71.417-38.863a17.681 17.681 0 0 0-10.556-4.572c-177.62-12.676-341.37-6.352-476.71 38.88a19.316 19.316 0 0 0-12.573 15.235c-21.378 123.09-21.007 258.84 0.1 402.42 1.173 7.981 6.736 14.4 14.052 16.19 145.83 35.672 306 43.05 475.31 32.389a17.379 17.379 0 0 0 10.265-4.2c15.753-13.574 44.317-28.937 72.55-38.138 7.038-2.294 12.06-8.978 12.819-16.856a2010.3 2010.3 0 0 0 0.158-385.29c-0.8-8.359-6.408-15.263-14-17.198z" fill="#ffeede"/>
 <g opacity=".2">
  <path d="M818.145,441.417q.024-8.922-.045-17.845c-.011-1.794-.014-3.588-.03-5.382q-.07-7.851-.212-15.7c-.042-2.529-.082-5.058-.134-7.587q-.147-7.152-.349-14.3-.125-4.535-.268-9.069-.213-6.619-.468-13.237-.2-5.122-.426-10.243-.27-6.152-.57-12.3c-.189-3.786-.4-7.571-.609-11.357s-.419-7.576-.651-11.364c-.257-4.2-.544-8.409-.828-12.614-.231-3.409-.45-6.817-.7-10.226-.356-4.9-.749-9.794-1.141-14.692-.22-2.749-.422-5.5-.653-8.246q-.962-11.43-2.049-22.86c0-.051-.009-.1-.014-.152a20.983,20.983,0,0,0-1.457-5.941,20.154,20.154,0,0,0-2.117-3.9,19.4,19.4,0,0,0-1.837-2.258,18.549,18.549,0,0,0-3.311-2.771,17.76,17.76,0,0,0-2.529-1.376,17.4,17.4,0,0,0-2.748-.952,148.877,148.877,0,0,1-27.16-10.3q-2.5-1.207-4.977-2.484c-3.3-1.7-6.551-3.482-9.715-5.312q-2.373-1.372-4.673-2.776-3.447-2.1-6.689-4.241c-5.029-3.315-9.621-6.644-13.545-9.8q-.841-.676-1.64-1.342-1.6-1.33-3.018-2.607c-.337-.3-.685-.589-1.039-.863-.2-.155-.406-.3-.611-.444-.141-.1-.28-.2-.424-.3-.279-.188-.564-.364-.852-.535l-.174-.1q-.5-.288-1.008-.543h0a17.226,17.226,0,0,0-6.449-1.787c-177.62-12.676-341.369-6.352-476.712,38.88a19.316,19.316,0,0,0-12.573,15.235c-19.889,114.52-20.942,239.991-4,372.535,155.973,33.339,325.434,40.063,503.788,29.239q-1.822,23.8-4.068,47.609a17.488,17.488,0,0,0,4.009-2.584c15.753-13.574,44.317-28.937,72.55-38.138,7.038-2.294,12.06-8.978,12.819-16.856q9.016-93.478,9.293-186.955C818.139,442.184,818.144,441.8,818.145,441.417Z" fill="#172a39"/>
 </g>
 <path d="m724.59 687.58-10.255-0.968c1.128-11.943 2.684-32.837 3.934-49.626 0.4-5.337 0.758-10.181 1.055-14.059l10.27 0.786c-0.3 3.873-0.656 8.709-1.053 14.038-1.254 16.834-2.814 37.784-3.951 49.829z" fill="#172a39"/>
 <path d="m575.65 698.38c-125.9 0-237.67-12.265-338.98-37.047-9.4-2.3-16.436-10.324-17.924-20.444-21.371-145.36-21.4-281.31-0.08-404.05a24.407 24.407 0 0 1 16.015-19.236c65.381-21.85 138.58-35.395 223.77-41.408 75.459-5.327 158.85-4.582 254.94 2.276a22.671 22.671 0 0 1 13.633 5.878c14.969 13.459 45.7 31.7 69.245 37.7 9.674 2.466 16.849 11.186 17.854 21.7a2024.9 2024.9 0 0 1-0.155 386.27c-0.964 9.991-7.382 18.335-16.35 21.259-26.626 8.677-55.072 23.6-70.784 37.142a22.385 22.385 0 0 1-13.3 5.437q-71.693 4.513-137.89 4.519zm-14.52-515.44c-129.03 0-233.85 14.573-323.18 44.428a14.129 14.129 0 0 0-9.131 11.232c-21.129 121.66-21.089 256.51 0.123 400.79 0.875 5.953 4.871 10.638 10.18 11.937 135.82 33.223 290.79 43.772 473.77 32.251a12.161 12.161 0 0 0 7.226-2.959c16.91-14.571 46.08-29.931 74.316-39.134 5.072-1.653 8.719-6.542 9.289-12.454a2014.5 2014.5 0 0 0 0.154-384.3c-0.592-6.2-4.669-11.3-10.144-12.7-25.4-6.474-57.362-25.434-73.588-40.024a12.469 12.469 0 0 0-7.48-3.264c-54.023-3.857-104.39-5.802-151.53-5.802z" fill="#172a39"/>
 <path d="m914.87 212.55c-0.912-5.75-7.313-10.5-15.977-11.832-16.906-2.6-36.2-8.171-52.727-14.226v0.012q-2.37-37.564-5.953-75.128c-0.92-9.62-7.375-17.567-16.113-19.795-28.931-7.374-64.8-29.081-82.2-44.733a20.352 20.352 0 0 0-12.151-5.262c-204.45-14.59-392.93-7.311-548.71 44.753-7.47 2.5-13.034 9.256-14.472 17.536-24.607 141.68-24.18 297.93 0.118 463.2 1.35 9.186 7.754 16.576 16.174 18.635 167.86 41.06 352.22 49.552 547.1 37.281a20 20 0 0 0 11.816-4.832c18.132-15.625 51.01-33.307 83.507-43.9 8.1-2.64 13.881-10.334 14.756-19.4q2.443-25.327 4.32-50.655a421.62 421.62 0 0 1 55.707-14.981c8.033-1.578 13.764-6.177 14.631-11.6a837.07 837.07 0 0 0 0.178-265.07zm-64.116 113.05v-0.2zm-0.456-39.787v-0.08zm-3.313 178.47c-8e-3 0.142-0.017 0.284-0.025 0.427zm1.926-39.586-6e-3 0.138z" fill="#ffeede"/>
 <path d="m571.61 633.33c-144.84 0-273.44-14.111-389.98-42.62-10.512-2.571-18.381-11.556-20.047-22.888-24.586-167.24-24.619-323.63-0.1-464.83a27.315 27.315 0 0 1 17.919-21.54c75.192-25.129 159.38-40.708 257.38-47.624 86.82-6.128 182.77-5.271 293.33 2.62a25.327 25.327 0 0 1 15.228 6.57c17.3 15.553 52.815 36.634 80.031 43.572 10.818 2.757 18.842 12.52 19.968 24.295 2.26 23.629 4.19 47.759 5.742 71.778 9.435 2.972 35.337 10.928 48.593 12.964 11.037 1.7 19 8.022 20.282 16.115a846.1 846.1 0 0 1-0.178 266.69c-1.221 7.626-8.57 13.843-18.724 15.837a421.46 421.46 0 0 0-51.818 13.7c-1.213 15.972-2.583 31.9-4.075 47.377-1.079 11.193-8.257 20.537-18.286 23.8-30.737 10.018-63.586 27.259-81.741 42.9a24.991 24.991 0 0 1-14.855 6.071q-82.506 5.2-158.66 5.207zm-16.706-593.28c-148.61 0-269.34 16.786-372.24 51.178a17.037 17.037 0 0 0-11.031 13.532c-24.335 140.12-24.288 295.41 0.139 461.57 1.053 7.166 5.883 12.811 12.3 14.382 115.72 28.308 243.55 42.322 387.53 42.324q75.935 0 158.02-5.182a14.765 14.765 0 0 0 8.777-3.594c19.39-16.708 52.862-34.33 85.274-44.893 6.133-2 10.539-7.886 11.225-15 1.533-15.9 2.938-32.291 4.173-48.707a7.932 7.932 0 0 1 5.34-6.925 430.63 430.63 0 0 1 54.648-14.563c6.64-1.3 10.118-4.728 10.538-7.358a835.81 835.81 0 0 0 0.175-263.45c-0.465-2.931-4.623-6.465-11.672-7.548-14.41-2.214-41.489-10.581-51.018-13.6l-5.475 4-0.592-9.378c-1.581-25.068-3.58-50.289-5.94-74.963-0.713-7.461-5.639-13.608-12.258-15.294-29.119-7.422-65.767-29.163-84.375-45.893a15.117 15.117 0 0 0-9.073-3.955c-62.196-4.439-120.19-6.678-174.47-6.678z" fill="#172a39"/>
 <g opacity=".2">
  <path d="m840.21 111.37c-0.92-9.62-7.375-17.567-16.113-19.795-28.931-7.374-64.8-29.081-82.2-44.733a21.14 21.14 0 0 0-4.728-3.205 3064.7 3064.7 0 0 1-0.011 577.49 20.128 20.128 0 0 0 4.615-2.974c18.132-15.625 51.01-33.307 83.507-43.9 8.1-2.64 13.881-10.334 14.756-19.4a2313.9 2313.9 0 0 0 0.174-443.48z" fill="#172a39"/>
 </g>
 <path d="m742.28 621.61-10.255-0.968a3074 3074 0 0 0 0.011-576.52l10.255-0.968a3084.3 3084.3 0 0 1-0.011 578.45z" fill="#172a39"/>
 <path d="m558.45 586.3c-130.64 0-246.53-11.274-352.74-34.392a27.491 27.491 0 0 1-21.465-23.22c-18.307-138.9-18.462-269.24-0.465-388.53a27.441 27.441 0 0 1 19.485-22.2c94.576-27.655 206.14-41.139 339.54-41.139 39.438 0 80.3 1.153 123.77 3.507a27.459 27.459 0 0 1 25.9 25.294 2964.4 2964.4 0 0 1 0.038 452.88 27.466 27.466 0 0 1-26.19 25.31c-37.031 1.65-73.142 2.486-107.87 2.486z" fill="#ffc522"/>
 <g fill="#ffeede">
  <path d="m196.84 237.72c-0.091 0-0.181 0-0.273-9e-3a3.863 3.863 0 0 1-3.584-4.122c1.579-22.646 3.789-45.255 6.567-67.2a3.863 3.863 0 1 1 7.664 0.971c-2.759 21.8-4.954 44.265-6.524 66.767a3.863 3.863 0 0 1-3.85 3.593z"/>
  <path d="m194.54 281.74h-0.138a3.862 3.862 0 0 1-3.724-4c0.3-8.521 0.687-17.116 1.15-25.546a3.863 3.863 0 0 1 7.714 0.424c-0.461 8.379-0.845 16.923-1.144 25.394a3.863 3.863 0 0 1-3.858 3.728z"/>
  <path d="m204.02 503.88a3.863 3.863 0 0 1-3.833-3.423c-2.778-24.214-5.025-48.5-6.68-72.192a3.863 3.863 0 0 1 7.707-0.538c1.647 23.574 3.883 47.749 6.649 71.85a3.863 3.863 0 0 1-3.4 4.278 3.939 3.939 0 0 1-0.443 0.025z"/>
 </g>
 <g opacity=".2">
  <path d="m692.47 105.62a27.46 27.46 0 0 0-25.9-25.294c-43.467-2.354-84.328-3.507-123.77-3.507-133.4 0-244.96 13.485-339.54 41.136a27.439 27.439 0 0 0-19.329 21.372c93.982-27.108 204.66-40.34 336.76-40.34 39.437 0 80.295 1.153 123.77 3.507a27.46 27.46 0 0 1 25.9 25.294 2964.4 2964.4 0 0 1 0.038 452.88c-0.07 0.912-0.19 1.808-0.345 2.691a27.436 27.436 0 0 0 22.459-24.86 2964.4 2964.4 0 0 0-0.04-452.88z" fill="#172a39"/>
 </g>
 <g fill="#172a39">
  <path d="m558.45 591.45c-131.41 0-247.15-11.288-353.84-34.51a32.726 32.726 0 0 1-25.476-27.58c-18.342-139.17-18.494-270.38-0.451-389.97a32.7 32.7 0 0 1 23.132-26.375c95.15-27.819 206.68-41.343 340.98-41.343 39.795 0 80.371 1.15 124.05 3.514a32.691 32.691 0 0 1 30.753 30.043 2974.8 2974.8 0 0 1 0.038 453.67 32.647 32.647 0 0 1-31.1 30.062c-37.038 1.651-73.403 2.488-108.09 2.488zm-15.649-509.48c-133.31 0-243.9 13.388-338.1 40.929a22.363 22.363 0 0 0-15.838 18.024c-17.9 118.64-17.737 248.87 0.479 387.09a22.4 22.4 0 0 0 17.454 18.86c105.96 23.063 220.98 34.275 351.65 34.275 34.533 0 70.748-0.834 107.64-2.478a22.337 22.337 0 0 0 21.29-20.558 2964.4 2964.4 0 0 0-0.038-452.09 22.362 22.362 0 0 0-21.041-20.546c-43.491-2.354-83.882-3.499-123.49-3.499z"/>
  <circle cx="618.25" cy="660.07" r="10.329"/>
  <circle cx="586.51" cy="660.74" r="10.329"/>
  <circle cx="554.77" cy="660.07" r="10.329"/>
 </g>
 <g opacity=".4">
  <path d="m914.87 212.55c-0.912-5.75-7.313-10.5-15.977-11.832-16.906-2.6-36.2-8.171-52.727-14.226a2311.4 2311.4 0 0 1-1.81 317.71 421.62 421.62 0 0 1 55.707-14.981c8.033-1.578 13.764-6.177 14.631-11.6a837.07 837.07 0 0 0 0.176-265.07z" fill="#172a39"/>
 </g>
 <path d="m849.49 504.58-10.272-0.766a2317.1 2317.1 0 0 0 1.806-317l10.281-0.649a2327.4 2327.4 0 0 1-1.815 318.42z" fill="#172a39"/>
 <ellipse cx="513.01" cy="182.01" rx="67.01" ry="120.75" fill="#ffeede"/>
 <path d="m513.01 307.91c-19.854 0-38.282-13.5-51.887-38.019-13.074-23.559-20.274-54.77-20.274-87.884s7.2-64.325 20.274-87.884c13.605-24.517 32.032-38.019 51.887-38.019s38.281 13.5 51.887 38.019c13.074 23.559 20.274 54.771 20.274 87.884s-7.2 64.326-20.274 87.884c-13.606 24.517-32.032 38.019-51.887 38.019zm0-241.51c-15.944 0-31.172 11.619-42.88 32.716-12.24 22.055-18.98 51.492-18.98 82.886s6.74 60.831 18.98 82.886c11.708 21.1 26.936 32.716 42.88 32.716s31.172-11.619 42.88-32.716c12.24-22.055 18.98-51.492 18.98-82.886s-6.74-60.831-18.98-82.886c-11.707-21.096-26.936-32.715-42.88-32.715z" fill="#172a39"/>
 <path d="m563.07 101.75a30.42 30.42 0 0 0-8.3-1.171c-21.042 0-39.225 22.036-47.839 54l33.887 11.414-38.377 13.634c-0.532 5.439-0.826 11.026-0.826 16.74 0 45.73 17.789 83.95 41.574 93.478 21.849-19.894 36.832-60.71 36.832-107.84-4e-3 -30.813-6.411-58.925-16.951-80.259z" fill="#172a39"/>
 <ellipse cx="318.53" cy="189.06" rx="63.096" ry="113.7" fill="#ffeede"/>
 <path d="m318.53 307.91c-18.809 0-36.253-12.768-49.119-35.953-12.334-22.226-19.127-51.666-19.127-82.9s6.793-60.67 19.127-82.9c12.866-23.185 30.31-35.953 49.119-35.953s36.253 12.768 49.119 35.953c12.334 22.226 19.127 51.667 19.127 82.9s-6.793 60.67-19.127 82.9c-12.866 23.185-30.31 35.953-49.119 35.953zm0-227.4c-14.9 0-29.143 10.885-40.112 30.65-11.5 20.723-17.833 48.388-17.833 77.9s6.334 57.175 17.833 77.9c10.969 19.765 25.214 30.65 40.112 30.65s29.143-10.885 40.112-30.65c11.5-20.723 17.833-48.388 17.833-77.9s-6.334-57.175-17.833-77.9c-10.969-19.762-25.214-30.648-40.112-30.648z" fill="#172a39"/>
 <path d="m365.67 113.5a28.643 28.643 0 0 0-7.819-1.1c-19.813 0-36.934 20.749-45.044 50.844l31.908 10.747-36.135 12.837c-0.5 5.121-0.778 10.382-0.778 15.762 0 43.059 16.75 79.046 39.145 88.017 20.572-18.732 34.68-57.164 34.68-101.54 0-29.018-6.033-55.486-15.957-75.57z" fill="#172a39"/>
 <ellipse cx="409.02" cy="294.86" rx="36.977" ry="29.711" fill="#fb7691"/>
 <g fill="#172a39">
  <path d="m409.02 329.72c-23.229 0-42.128-15.638-42.128-34.861s18.9-34.861 42.128-34.861 42.128 15.639 42.128 34.861-18.899 34.861-42.128 34.861zm0-59.422c-17.55 0-31.827 11.018-31.827 24.561s14.278 24.56 31.827 24.56 31.827-11.017 31.827-24.56-14.278-24.556-31.827-24.556z"/>
  <path d="m508.42 481.74c-16.291 0-32.669-7.422-45.6-20.825-15.93-16.515-24.149-39.677-21.451-60.447 7.126-54.835 48.116-67.4 49.858-67.912a5.15 5.15 0 0 1 2.9 9.883c-1.48 0.444-36.318 11.423-42.547 59.357-2.305 17.739 4.841 37.652 18.649 51.968 12.05 12.494 27.421 18.874 42.163 17.491a5.15 5.15 0 0 1 0.958 10.256q-2.457 0.23-4.93 0.229z"/>
  <path d="m307.61 474.12c-16.292 0-32.669-7.422-45.6-20.825-15.929-16.515-24.148-39.677-21.45-60.447 7.126-54.835 48.116-67.4 49.857-67.911a5.15 5.15 0 0 1 2.9 9.884c-1.524 0.458-36.319 11.453-42.543 59.355-2.305 17.739 4.841 37.653 18.649 51.968 12.05 12.492 27.42 18.872 42.163 17.49a5.151 5.151 0 0 1 0.958 10.257q-2.461 0.23-4.934 0.229z"/>
  <path d="m347.49 451.92c-0.62 0-1.239-0.018-1.863-0.056-23.221-1.386-40.515-29.306-38.549-62.239 0.93-15.6 5.969-30.08 14.188-40.781 8.672-11.291 19.862-17.132 31.489-16.432 17.826 1.063 32.414 17.21 37.166 41.137a5.15 5.15 0 1 1-10.1 2.007c-3.752-18.892-14.874-32.1-27.677-32.862-8.1-0.478-16.18 3.929-22.706 12.424-6.977 9.085-11.266 21.558-12.075 35.121-1.626 27.264 11.33 50.3 28.881 51.344 13.8 0.805 27.188-12.833 32.524-33.212a5.15 5.15 0 1 1 9.965 2.609c-6.487 24.756-22.909 40.94-41.243 40.94z"/>
  <ellipse transform="translate(-63.047 717.35) rotate(-86.586)" cx="349.19" cy="392.14" rx="30.101" ry="20.389"/>
  <path d="m393.93 364.8a114.04 114.04 0 0 1-15.025-0.874 5.15 5.15 0 0 1 1.464-10.2c0.241 0.034 24.444 3.346 49.21-4.342a5.151 5.151 0 0 1 3.054 9.838 132.57 132.57 0 0 1-38.703 5.578z"/>
  <path d="m418.4 458.28a5.13 5.13 0 0 1-3.318-1.213c-19.181-16.176-41.265-22.606-41.486-22.669a5.15 5.15 0 1 1 2.828-9.9 135.75 135.75 0 0 1 45.3 24.7 5.151 5.151 0 0 1-3.323 9.088z"/>
  <path d="M454.508,59.905l.145-1.622.189-1.472c.138-.973.279-1.939.469-2.889q.562-2.854,1.388-5.636a66.414,66.414,0,0,1,4.291-10.846,67.44,67.44,0,0,1,14.256-19.192,62.5,62.5,0,0,1,9.745-7.534c1.725-1.143,3.56-2.1,5.371-3.106,1.875-.867,3.73-1.8,5.664-2.519a67.988,67.988,0,0,1,11.784-3.547c2-.36,4-.767,6.008-.955l3.005-.337c1.024-.084,2.086-.118,3.127-.174a61.768,61.768,0,0,1,12.677.759,60.1,60.1,0,0,1,12.357,3.572,61.276,61.276,0,0,1,11.074,6.233,63.945,63.945,0,0,1,9.162,8.233,71.5,71.5,0,0,1,12.556,19.664,77,77,0,0,1,3.737,10.643,66.011,66.011,0,0,1,2.081,11.1,3.754,3.754,0,0,1-7,2.225l-.155-.274c-1.578-2.771-3.412-5.745-5.236-8.483-1.839-2.773-3.776-5.437-5.782-7.974a78.121,78.121,0,0,0-13.136-13.182,55.36,55.36,0,0,0-7.272-4.664,45.181,45.181,0,0,0-7.611-3.093,42.623,42.623,0,0,0-16.092-1.452c-.7.067-1.38.1-2.09.184l-2.182.332c-1.47.163-2.862.572-4.3.812a70.194,70.194,0,0,0-8.248,2.4,59.029,59.029,0,0,0-7.78,3.454c-1.269.647-2.471,1.413-3.725,2.114-1.2.786-2.414,1.562-3.58,2.427a75.617,75.617,0,0,0-13.2,12.169c-2.028,2.348-4,4.825-5.849,7.434-.949,1.294-1.843,2.629-2.737,3.974L466.3,60.708l-.627,1.012c-.2.31-.432.705-.59.888l-1.133,1.307a5.389,5.389,0,0,1-9.44-4.01Z"/>
  <path d="M363.407,76.58c-.177-.164-.449-.531-.685-.817l-.735-.937-1.54-1.865c-1.038-1.237-2.075-2.466-3.161-3.646-2.128-2.388-4.361-4.632-6.637-6.74a75.617,75.617,0,0,0-14.47-10.63c-1.255-.731-2.547-1.367-3.827-2.015-1.324-.558-2.6-1.186-3.937-1.688a59.03,59.03,0,0,0-8.115-2.569,70.21,70.21,0,0,0-8.463-1.472c-1.454-.079-2.883-.331-4.362-.33l-2.205-.088c-.715,0-1.4.038-2.1.049a42.626,42.626,0,0,0-15.831,3.228,45.188,45.188,0,0,0-7.221,3.918,55.335,55.335,0,0,0-6.71,5.441,78.12,78.12,0,0,0-11.594,14.558c-1.713,2.744-3.342,5.607-4.862,8.566-1.509,2.924-3,6.082-4.263,9.011l-.123.286a3.753,3.753,0,0,1-7.2-1.432,66,66,0,0,1,.838-11.263,77.009,77.009,0,0,1,2.533-10.992,71.511,71.511,0,0,1,10.3-20.935,63.94,63.94,0,0,1,8.193-9.2A61.273,61.273,0,0,1,277.542,27.6a60.1,60.1,0,0,1,11.884-4.92,61.77,61.77,0,0,1,12.515-2.161c1.041-.06,2.1-.144,3.127-.174l3.024,0c2.012-.036,4.052.146,6.077.283a67.989,67.989,0,0,1,12.1,2.218c2,.5,3.949,1.222,5.909,1.875,1.912.8,3.841,1.547,5.682,2.491a62.5,62.5,0,0,1,10.52,6.407,67.441,67.441,0,0,1,16.3,17.492,66.4,66.4,0,0,1,5.467,10.3q1.133,2.67,2,5.447c.294.923.541,1.868.786,2.819l.351,1.442.324,1.6a5.389,5.389,0,0,1-8.914,5.053Z"/>
  <path d="M522.2,380.327a5.146,5.146,0,0,0-1.325-2.273l-.5-.5a5.3,5.3,0,0,0-7.284,0l-.805,1.042a5.126,5.126,0,0,0-.7,2.6l.184,1.369a5.147,5.147,0,0,0,1.325,2.273l.5.5a5.3,5.3,0,0,0,7.284,0l.805-1.042a5.126,5.126,0,0,0,.7-2.6Z"/>
  <path d="M495.494,420.13a5.146,5.146,0,0,0-1.324-2.273l-1.042-.805a5.127,5.127,0,0,0-2.6-.7H489.52a5.293,5.293,0,0,0-5.15,5.15l.184,1.369a5.146,5.146,0,0,0,1.325,2.273l1.042.805a5.126,5.126,0,0,0,2.6.7h1.008a5.294,5.294,0,0,0,5.15-5.15Z"/>
  <path d="M548.641,420.523a5.293,5.293,0,0,0-4.707-3.166l-1.369.184a5.146,5.146,0,0,0-2.273,1.325l-.805,1.042a5.128,5.128,0,0,0-.7,2.6v.5a5.293,5.293,0,0,0,5.15,5.15l1.369-.184a5.145,5.145,0,0,0,2.273-1.325l.805-1.042a5.126,5.126,0,0,0,.7-2.6v-.5A3.877,3.877,0,0,0,548.641,420.523Z"/>
  <path d="m286.98 379.57c-6.628 0-6.639 10.3 0 10.3s6.639-10.3 0-10.3z"/>
  <path d="m272.37 413.83c-6.628 0-6.639 10.3 0 10.3s6.639-10.3 0-10.3z"/>
  <path d="m844.34 663a19.314 19.314 0 0 1-14.519-32.042c32.037-36.564 68-82.623 75.271-98.558-3.777-5.6-16.6-21.233-58.958-57.317-28.622-24.384-56.271-45.757-56.547-45.97a19.314 19.314 0 0 1 23.6-30.576c1.3 1 32.134 24.838 63.342 51.725 18.566 15.999 33.38 29.738 44.022 40.85 18.118 18.913 24.859 30.717 24.047 42.1-0.711 9.957-6.677 25.871-45.185 74.478-20.123 25.4-39.715 47.786-40.539 48.726a19.27 19.27 0 0 1-14.534 6.584zm62.225-128.08zm-0.351-5.517z"/>
 </g>
 <path d="m823.66 619.67q-0.163 0.042-0.328 0.088a13.433 13.433 0 0 0-6.158 3.721c-2.9 3.084-4.14 8-2.045 11.679-19.616 1.043-53.917-4.9-62 20.007a22.73 22.73 0 0 0 6 23.12c-6.12 1.623-14.891 13.446-10.743 27.889 3.02 10.517 19.524 12.368 21.068 9.335-4.537 8.915 2.52 20.483 12.1 23.373 7.55 2.278 12.453 0.359 18.778-3.061a21 21 0 0 0 19.424 6.976c9.336-1.7 13.057-8.722 17.449-16.106a61.651 61.651 0 0 0 5.08-12.274c2.322-7 4.624-14 6.967-21 0.8-2.389 4.039-11.9 1.675-13.934 4.038 3.467 14.689 5.115 17.818-0.688 7.22-13.388-7.861-29.828-15.4-39.329-7.178-9.034-15.872-23.368-29.685-19.796z" fill="#ffeede"/>
 <path d="M823.853,746.885a25.082,25.082,0,0,1-2.6.68l-.6.119a25.842,25.842,0,0,1-21.263-5.793,34.78,34.78,0,0,1-4.418,1.792,23.917,23.917,0,0,1-14.854-.045,25.027,25.027,0,0,1-15.29-13.905,20.987,20.987,0,0,1-1.756-8.053c-7.9-.782-16.966-5.448-19.462-14.138a30.712,30.712,0,0,1,2.649-23.851,25.884,25.884,0,0,1,5.354-6.7,27.873,27.873,0,0,1-3.213-23.368c3.254-10.031,10.182-16.626,21.18-20.159,10.65-3.422,23.389-3.29,33.625-3.183,2.04.023,4.02.043,5.91.039a16.2,16.2,0,0,1,4.435-10.253,18.374,18.374,0,0,1,7.747-4.9q.352-.113.708-.211l.4-.108c15.384-3.988,25.14,8.831,32.263,18.191.9,1.18,1.742,2.291,2.568,3.33.651.821,1.359,1.693,2.106,2.612,8.737,10.767,21.94,27.038,13.78,42.168A11.866,11.866,0,0,1,866.1,686.8h0a16.269,16.269,0,0,1-1.956.493,21.137,21.137,0,0,1-7.962-.18A66.345,66.345,0,0,1,854,694.88l-.037.113q-2.313,6.9-4.588,13.812L847,715.979a65.538,65.538,0,0,1-5.526,13.25l-.638,1.077C836.841,737.061,832.711,744.039,823.853,746.885Zm-15.936-11.093a16.07,16.07,0,0,0,10.947,2.111,14.685,14.685,0,0,0,1.89-.467c5.324-1.71,8.045-6.309,11.491-12.131l.687-1.159a58.083,58.083,0,0,0,4.631-11.287l2.476-7.479q2.241-6.773,4.5-13.543l.039-.117c2.053-6.123,2.25-8.642,2.235-9.46a4.584,4.584,0,0,1-.394-.678c-2.57-5.523-6.4-12.456-8.1-14.027a4.971,4.971,0,1,1,6.749-7.3c3.47,3.207,7.9,11.982,9.791,15.927a12.088,12.088,0,0,0,7.462,1.336,5.759,5.759,0,0,0,.739-.18,2.142,2.142,0,0,0,1.305-.9c5.013-9.294-5.674-22.464-12.746-31.18l-.115-.141c-.729-.9-1.422-1.752-2.061-2.557-.861-1.085-1.744-2.244-2.654-3.439-7.328-9.628-13.578-16.8-21.889-14.642,0,0-.45.125-.551.158a8.543,8.543,0,0,0-3.559,2.244,6.294,6.294,0,0,0-1.7,4.687c.051.029.1.06.153.092.89.566,8.818,5.7,12.591,11.235a4.972,4.972,0,1,1-8.215,5.6c-2.141-3.141-7.528-7.025-9.527-8.328-3.31.128-6.941.1-10.987.06-10.6-.112-21.57-.228-30.355,2.594-7.809,2.509-12.682,7.047-14.9,13.873a17.946,17.946,0,0,0,3.18,16.346,15.7,15.7,0,0,0,1.78-.459c5.3-1.7,10.44-6.352,15.284-13.817a4.971,4.971,0,1,1,8.34,5.411c-6.134,9.454-13.05,15.472-20.557,17.884a25.478,25.478,0,0,1-2.647.7,24.351,24.351,0,0,1-3.08.423c-1.359.515-3.535,2.392-5.249,5.415a20.838,20.838,0,0,0-1.742,16.2c.795,2.765,3.275,4.458,5.217,5.391a15.127,15.127,0,0,0,8.063,1.572l.124-.039.2.449-.107-.47c.561-.127,1.751-.422,3.414-.957,3.061-.983,10.525-3.714,13.718-7.815a4.971,4.971,0,1,1,7.846,6.105c-4.693,6.032-13.6,9.58-18.523,11.165a10.487,10.487,0,0,0,.854,5.631,15.05,15.05,0,0,0,9.018,8.29,13.819,13.819,0,0,0,8.9.1,34.439,34.439,0,0,0,5.656-2.554c4.643-3.854,9.174-8.574,9.724-10.133a4.971,4.971,0,1,1,9.377,3.3C815.442,728.257,811.439,732.52,807.917,735.792Z" fill="#172a39"/>
 <metadata>
  <rdf:RDF>
   <cc:Work rdf:about="">
    <dc:title>ticket,tv,bank,dollar</dc:title>
   </cc:Work>
  </rdf:RDF>
 </metadata>
</svg>
