<svg xmlns="http://www.w3.org/2000/svg" width="128" height="128" viewBox="0 0 128 128">
  <title>WIND</title>
  <g>
    <g>
      <path d="M109.438,68H1.75V60H109.576a8.572,8.572,0,0,0,8.651-7.8,8.383,8.383,0,0,0-8.355-8.948h-.188a8.389,8.389,0,0,0-7.947,5.731,3.746,3.746,0,0,1-3.52,2.644h-.542a3.792,3.792,0,0,1-3.6-4.959A16.405,16.405,0,0,1,109.684,35.25h.188a16.394,16.394,0,0,1,16.372,16.1C126.4,60.505,118.6,68,109.438,68Z" fill="#beebfa"/>
      <path d="M1.75,77.232v8H15a4,4,0,0,0,4-4h0a4,4,0,0,0-4-4Z" fill="#beebfa"/>
      <path d="M70.625,77.232H34.75a4,4,0,0,0-4,4h0a4,4,0,0,0,4,4H70.625a6.383,6.383,0,0,1,6.321,7.214A6.524,6.524,0,0,1,70.4,97.982h-.277a6.384,6.384,0,0,1-5.873-3.9,3.9,3.9,0,0,0-3.549-2.479h-.467A3.788,3.788,0,0,0,56.7,96.752a14.4,14.4,0,0,0,13.423,9.23h.081A14.651,14.651,0,0,0,84.982,92.331,14.391,14.391,0,0,0,70.625,77.232Z" fill="#9ee2f8"/>
      <path d="M1.75,42.768v8H33.5a4,4,0,0,0,4-4h0a4,4,0,0,0-4-4Z" fill="#beebfa"/>
      <path d="M70.625,22.018h-.5A14.4,14.4,0,0,0,56.7,31.249a3.787,3.787,0,0,0,3.534,5.144h.467a3.9,3.9,0,0,0,3.549-2.479,6.385,6.385,0,0,1,5.873-3.9h.5a6.383,6.383,0,0,1,6.321,7.214A6.525,6.525,0,0,1,70.4,42.768H53.25a4,4,0,0,0-4,4h0a4,4,0,0,0,4,4H70.208a14.651,14.651,0,0,0,14.774-13.65A14.391,14.391,0,0,0,70.625,22.018Z" fill="#9ee2f8"/>
    </g>
    <g>
      <path d="M109.438,69.75H1.75A1.751,1.751,0,0,1,0,68V60a1.751,1.751,0,0,1,1.75-1.75H21.125a1.75,1.75,0,0,1,0,3.5H3.5v4.5H109.438A15.342,15.342,0,0,0,120.3,61.667a14.271,14.271,0,0,0,4.2-10.29A14.691,14.691,0,0,0,109.872,37h-.188a14.582,14.582,0,0,0-13.94,10.2,2.048,2.048,0,0,0,.3,1.849,2,2,0,0,0,1.633.829h.542a1.994,1.994,0,0,0,1.86-1.448,10.115,10.115,0,0,1,9.607-6.927h.188a10.161,10.161,0,0,1,7.393,3.213,10.04,10.04,0,0,1,2.709,7.6,10.308,10.308,0,0,1-10.4,9.435H62.25a1.75,1.75,0,0,1,0-3.5h47.326a6.8,6.8,0,0,0,6.905-6.169A6.633,6.633,0,0,0,109.872,45h-.188a6.62,6.62,0,0,0-6.287,4.534,5.509,5.509,0,0,1-5.18,3.841h-.542a5.542,5.542,0,0,1-5.266-7.24A18.071,18.071,0,0,1,109.684,33.5h.188a18.206,18.206,0,0,1,18.122,17.818,17.745,17.745,0,0,1-5.2,12.8A18.864,18.864,0,0,1,109.438,69.75Z"/>
      <path d="M46.5,61.75H36.875a1.75,1.75,0,0,1,0-3.5H46.5a1.75,1.75,0,0,1,0,3.5Z"/>
      <path d="M15,86.982H1.75A1.751,1.751,0,0,1,0,85.232v-8a1.751,1.751,0,0,1,1.75-1.75H15a5.75,5.75,0,0,1,0,11.5Zm-11.5-3.5H15a2.25,2.25,0,0,0,0-4.5H3.5Z"/>
      <path d="M70.208,107.732A16.262,16.262,0,0,1,55.07,97.38a5.538,5.538,0,0,1,5.168-7.523h.467A5.665,5.665,0,0,1,65.866,93.4a4.62,4.62,0,0,0,4.261,2.829,1.75,1.75,0,0,1,0,3.5,8.116,8.116,0,0,1-7.484-4.963,2.149,2.149,0,0,0-1.938-1.412h-.467a2.038,2.038,0,0,0-1.9,2.766,12.713,12.713,0,0,0,11.79,8.109A12.851,12.851,0,0,0,83.234,92.245,12.641,12.641,0,0,0,70.625,78.982H34.75a2.25,2.25,0,0,0,0,4.5H70.625a8.133,8.133,0,0,1,8.057,9.186,1.75,1.75,0,1,1-3.472-.445,4.631,4.631,0,0,0-4.585-5.241H34.75a5.75,5.75,0,0,1,0-11.5H70.625A16.14,16.14,0,0,1,86.73,92.418,16.327,16.327,0,0,1,70.208,107.732Z"/>
      <g>
        <path d="M33.5,52.518H1.75A1.751,1.751,0,0,1,0,50.768v-8a1.751,1.751,0,0,1,1.75-1.75H33.5a5.75,5.75,0,0,1,0,11.5Zm-30-3.5h30a2.25,2.25,0,0,0,0-4.5H3.5Z"/>
        <path d="M70.208,52.518H53.25a5.75,5.75,0,0,1,0-11.5H70.4a4.753,4.753,0,0,0,4.807-4.009,4.632,4.632,0,0,0-4.585-5.241h-.5A4.622,4.622,0,0,0,65.866,34.6a5.665,5.665,0,0,1-5.161,3.546h-.467a5.538,5.538,0,0,1-5.168-7.522A16.234,16.234,0,0,1,70.127,20.268h.5A16.14,16.14,0,0,1,86.73,37.2,16.326,16.326,0,0,1,70.208,52.518Zm-16.958-8a2.25,2.25,0,0,0,0,4.5H70.208A12.83,12.83,0,0,0,83.234,37.031,12.641,12.641,0,0,0,70.625,23.768h-.5a12.713,12.713,0,0,0-11.79,8.109,2.038,2.038,0,0,0,1.9,2.766h.467a2.149,2.149,0,0,0,1.938-1.412,8.116,8.116,0,0,1,7.484-4.963h.5a8.133,8.133,0,0,1,8.057,9.188A8.258,8.258,0,0,1,70.4,44.518Z"/>
      </g>
    </g>
  </g>
</svg>
